<svg width="16" height="38" viewBox="0 0 16 38" fill="none" xmlns="http://www.w3.org/2000/svg">
<path d="M9 1.45752C9 0.905235 8.55228 0.45752 8 0.45752C7.44772 0.45752 7 0.905235 7 1.45752L9 1.45752ZM7.29289 37.1646C7.68342 37.5551 8.31658 37.5551 8.70711 37.1646L15.0711 30.8007C15.4616 30.4101 15.4616 29.777 15.0711 29.3865C14.6805 28.9959 14.0474 28.9959 13.6569 29.3865L8 35.0433L2.34315 29.3865C1.95262 28.9959 1.31946 28.9959 0.928933 29.3865C0.538409 29.777 0.538409 30.4101 0.928933 30.8007L7.29289 37.1646ZM7 1.45752L7 36.4575L9 36.4575L9 1.45752L7 1.45752Z" fill="#262626"/>
</svg>
