<svg width="342" height="684" viewBox="0 0 342 684" fill="none" xmlns="http://www.w3.org/2000/svg">
<rect x="5.05225" y="1" width="331.896" height="682" rx="51" fill="#F1F3F4" stroke="#BA5CF3" stroke-width="2"/>
<path d="M0.000488281 104.545C0.000488281 102.307 1.81469 100.493 4.05262 100.493V124.806C1.81469 124.806 0.000488281 122.992 0.000488281 120.754V104.545Z" fill="#BA5CF3"/>
<path d="M0.000488281 145.066C0.000488281 142.828 1.81469 141.014 4.05262 141.014V182.346C1.81469 182.346 0.000488281 180.532 0.000488281 178.294V145.066Z" fill="#BA5CF3"/>
<path d="M0.000488281 193.692C0.000488281 191.454 1.81469 189.64 4.05262 189.64V230.972C1.81469 230.972 0.000488281 229.157 0.000488281 226.92V193.692Z" fill="#BA5CF3"/>
<path d="M342 123.995C342 121.757 340.186 119.943 337.948 119.943V161.275C340.186 161.275 342 159.461 342 157.223V123.995Z" fill="#BA5CF3"/>
<circle cx="138.584" cy="43.763" r="4.86256" fill="black"/>
<circle cx="183.968" cy="25.1231" r="3.24171" fill="black"/>
<rect x="162.085" y="42.1421" width="44.5735" height="4.05213" rx="2.02607" fill="black"/>
<circle cx="170.595" cy="641.453" r="21.2867" fill="#F1F3F4" stroke="#BA5CF3" stroke-width="2"/>
<rect x="22.0715" y="79.6113" width="297.047" height="524.777" fill="white" stroke="black" stroke-width="2"/>
<mask id="path-11-outside-1_6_143" maskUnits="userSpaceOnUse" x="72.3706" y="199.796" width="196" height="284" fill="black">
<rect fill="white" x="72.3706" y="199.796" width="196" height="284"/>
<path d="M104.528 245.392L80.0514 249.479C78.9462 245.976 78.2961 242.343 78.1011 238.58C78.1011 238.58 78.1011 237.769 78.1011 236.147C78.1011 226.481 81.5792 218.437 88.5354 212.014C95.5566 205.591 105.113 202.38 117.205 202.38C130.728 202.38 140.967 205.364 147.923 211.333C154.879 217.236 158.357 226.611 158.357 239.456C158.357 241.791 158.162 244.094 157.772 246.365C157.382 248.571 156.96 250.517 156.505 252.204C156.049 253.891 155.269 255.739 154.164 257.751C153.124 259.762 152.279 261.319 151.629 262.422C151.044 263.46 149.971 264.919 148.411 266.801C146.915 268.617 145.908 269.817 145.388 270.401C144.868 270.985 143.73 272.185 141.975 274.002C140.219 275.818 139.212 276.856 138.952 277.116C138.236 277.829 135.994 279.938 132.223 283.441C128.517 286.879 125.169 290.058 122.179 292.978C119.188 295.832 116.36 298.849 113.695 302.028C111.029 305.142 109.697 307.315 109.697 308.547H160.015V329.47H76.1507C76.1507 328.496 76.1182 327.004 76.0532 324.993C75.9882 322.917 75.9557 321.328 75.9557 320.225C75.9557 317.176 76.1507 314.548 76.5408 312.343C78.1011 303.974 84.7972 294.275 96.6293 283.246C98.3846 281.624 101.18 279.257 105.016 276.143C108.916 273.029 112.329 270.206 115.255 267.676C118.18 265.081 121.203 262.162 124.324 258.918C127.51 255.675 129.947 252.398 131.638 249.09C133.393 245.716 134.271 242.473 134.271 239.359C134.271 228.395 129.07 222.913 118.668 222.913C114.572 222.913 110.932 224.113 107.746 226.513C104.561 228.914 102.968 232.385 102.968 236.926C102.968 239.715 103.488 242.537 104.528 245.392Z"/>
<path d="M206.433 272.931L233.835 235.077C232.21 229.757 230.715 226.254 229.35 224.567C228.049 222.816 225.774 221.94 222.523 221.94C219.663 221.94 217.16 223.01 215.015 225.151C212.934 227.292 211.341 229.887 210.236 232.936C209.196 235.985 208.351 239.78 207.701 244.321C207.051 248.798 206.628 252.788 206.433 256.291C206.303 259.794 206.238 263.719 206.238 268.066L206.433 272.931ZM237.346 258.821L209.261 297.162C210.626 302.028 212.154 305.531 213.844 307.672C215.535 309.812 217.973 310.883 221.158 310.883C223.629 310.883 225.774 310.299 227.594 309.131C229.48 307.899 231.007 306.05 232.178 303.585C233.348 301.119 234.29 298.557 235.006 295.897C235.786 293.237 236.338 289.928 236.663 285.971C236.988 281.949 237.183 278.348 237.248 275.169C237.378 271.991 237.443 268.131 237.443 263.589L237.346 258.821ZM222.718 201.796C228.895 201.796 234.323 203.029 239.004 205.494C243.75 207.959 247.553 211.203 250.413 215.225C253.274 219.183 255.614 224.016 257.434 229.725C259.255 235.369 260.49 241.045 261.14 246.754C261.855 252.463 262.213 258.626 262.213 265.244C262.213 272.055 261.888 278.413 261.238 284.317C260.587 290.155 259.352 296.059 257.532 302.028C255.777 307.931 253.469 312.959 250.608 317.111C247.748 321.263 243.912 324.636 239.101 327.231C234.29 329.826 228.732 331.124 222.426 331.124C215.925 331.124 210.204 329.989 205.263 327.718C200.322 325.447 196.356 322.463 193.366 318.765C190.44 315.067 188.035 310.494 186.15 305.044C184.329 299.53 183.062 293.951 182.346 288.307C181.696 282.662 181.371 276.402 181.371 269.525C181.371 264.53 181.501 259.859 181.761 255.512C182.086 251.101 182.639 246.56 183.419 241.889C184.264 237.218 185.337 232.968 186.637 229.141C187.937 225.313 189.66 221.68 191.806 218.242C193.951 214.739 196.421 211.819 199.217 209.484C202.077 207.148 205.49 205.299 209.456 203.937C213.422 202.51 217.843 201.796 222.718 201.796Z"/>
<path d="M120.326 351.871L143.925 356.25V481.393H118.766L118.571 387.779C109.664 398.873 99.9448 407.371 89.413 413.275L75.3706 392.45C80.9616 389.661 86.2925 386.384 91.3634 382.622C96.4992 378.794 100.66 375.291 103.846 372.112C107.096 368.933 110.054 365.722 112.72 362.478C115.45 359.169 117.303 356.769 118.278 355.277C119.253 353.72 119.936 352.585 120.326 351.871Z"/>
<path d="M228.374 421.838V390.212C223.304 399.23 214.982 409.837 203.41 422.033L228.374 421.838ZM175.52 426.217C175.78 425.828 178.641 422.649 184.102 416.681C189.563 410.647 195.121 404.355 200.777 397.802C206.433 391.25 212.122 383.725 217.843 375.226C223.629 366.662 227.399 359.396 229.155 353.428L253.436 353.233V421.838H265.821V442.274H253.436V480.518H228.374V442.566L184.297 442.76L175.52 426.217Z"/>
</mask>
<path d="M104.528 245.392L80.0514 249.479C78.9462 245.976 78.2961 242.343 78.1011 238.58C78.1011 238.58 78.1011 237.769 78.1011 236.147C78.1011 226.481 81.5792 218.437 88.5354 212.014C95.5566 205.591 105.113 202.38 117.205 202.38C130.728 202.38 140.967 205.364 147.923 211.333C154.879 217.236 158.357 226.611 158.357 239.456C158.357 241.791 158.162 244.094 157.772 246.365C157.382 248.571 156.96 250.517 156.505 252.204C156.049 253.891 155.269 255.739 154.164 257.751C153.124 259.762 152.279 261.319 151.629 262.422C151.044 263.46 149.971 264.919 148.411 266.801C146.915 268.617 145.908 269.817 145.388 270.401C144.868 270.985 143.73 272.185 141.975 274.002C140.219 275.818 139.212 276.856 138.952 277.116C138.236 277.829 135.994 279.938 132.223 283.441C128.517 286.879 125.169 290.058 122.179 292.978C119.188 295.832 116.36 298.849 113.695 302.028C111.029 305.142 109.697 307.315 109.697 308.547H160.015V329.47H76.1507C76.1507 328.496 76.1182 327.004 76.0532 324.993C75.9882 322.917 75.9557 321.328 75.9557 320.225C75.9557 317.176 76.1507 314.548 76.5408 312.343C78.1011 303.974 84.7972 294.275 96.6293 283.246C98.3846 281.624 101.18 279.257 105.016 276.143C108.916 273.029 112.329 270.206 115.255 267.676C118.18 265.081 121.203 262.162 124.324 258.918C127.51 255.675 129.947 252.398 131.638 249.09C133.393 245.716 134.271 242.473 134.271 239.359C134.271 228.395 129.07 222.913 118.668 222.913C114.572 222.913 110.932 224.113 107.746 226.513C104.561 228.914 102.968 232.385 102.968 236.926C102.968 239.715 103.488 242.537 104.528 245.392Z" fill="#BA5CF3"/>
<path d="M206.433 272.931L233.835 235.077C232.21 229.757 230.715 226.254 229.35 224.567C228.049 222.816 225.774 221.94 222.523 221.94C219.663 221.94 217.16 223.01 215.015 225.151C212.934 227.292 211.341 229.887 210.236 232.936C209.196 235.985 208.351 239.78 207.701 244.321C207.051 248.798 206.628 252.788 206.433 256.291C206.303 259.794 206.238 263.719 206.238 268.066L206.433 272.931ZM237.346 258.821L209.261 297.162C210.626 302.028 212.154 305.531 213.844 307.672C215.535 309.812 217.973 310.883 221.158 310.883C223.629 310.883 225.774 310.299 227.594 309.131C229.48 307.899 231.007 306.05 232.178 303.585C233.348 301.119 234.29 298.557 235.006 295.897C235.786 293.237 236.338 289.928 236.663 285.971C236.988 281.949 237.183 278.348 237.248 275.169C237.378 271.991 237.443 268.131 237.443 263.589L237.346 258.821ZM222.718 201.796C228.895 201.796 234.323 203.029 239.004 205.494C243.75 207.959 247.553 211.203 250.413 215.225C253.274 219.183 255.614 224.016 257.434 229.725C259.255 235.369 260.49 241.045 261.14 246.754C261.855 252.463 262.213 258.626 262.213 265.244C262.213 272.055 261.888 278.413 261.238 284.317C260.587 290.155 259.352 296.059 257.532 302.028C255.777 307.931 253.469 312.959 250.608 317.111C247.748 321.263 243.912 324.636 239.101 327.231C234.29 329.826 228.732 331.124 222.426 331.124C215.925 331.124 210.204 329.989 205.263 327.718C200.322 325.447 196.356 322.463 193.366 318.765C190.44 315.067 188.035 310.494 186.15 305.044C184.329 299.53 183.062 293.951 182.346 288.307C181.696 282.662 181.371 276.402 181.371 269.525C181.371 264.53 181.501 259.859 181.761 255.512C182.086 251.101 182.639 246.56 183.419 241.889C184.264 237.218 185.337 232.968 186.637 229.141C187.937 225.313 189.66 221.68 191.806 218.242C193.951 214.739 196.421 211.819 199.217 209.484C202.077 207.148 205.49 205.299 209.456 203.937C213.422 202.51 217.843 201.796 222.718 201.796Z" fill="#FFF956"/>
<path d="M120.326 351.871L143.925 356.25V481.393H118.766L118.571 387.779C109.664 398.873 99.9448 407.371 89.413 413.275L75.3706 392.45C80.9616 389.661 86.2925 386.384 91.3634 382.622C96.4992 378.794 100.66 375.291 103.846 372.112C107.096 368.933 110.054 365.722 112.72 362.478C115.45 359.169 117.303 356.769 118.278 355.277C119.253 353.72 119.936 352.585 120.326 351.871Z" fill="#31CA3E"/>
<path d="M228.374 421.838V390.212C223.304 399.23 214.982 409.837 203.41 422.033L228.374 421.838ZM175.52 426.217C175.78 425.828 178.641 422.649 184.102 416.681C189.563 410.647 195.121 404.355 200.777 397.802C206.433 391.25 212.122 383.725 217.843 375.226C223.629 366.662 227.399 359.396 229.155 353.428L253.436 353.233V421.838H265.821V442.274H253.436V480.518H228.374V442.566L184.297 442.76L175.52 426.217Z" fill="#6DD5FF"/>
<path d="M104.528 245.392L104.858 247.365L107.231 246.968L106.407 244.707L104.528 245.392ZM80.0514 249.479L78.1441 250.081L78.6669 251.738L80.3808 251.452L80.0514 249.479ZM78.1011 238.58H76.1011V238.632L76.1038 238.684L78.1011 238.58ZM88.5354 212.014L87.1854 210.538L87.1786 210.544L88.5354 212.014ZM147.923 211.333L146.621 212.851L146.629 212.858L147.923 211.333ZM157.772 246.365L159.742 246.713L159.743 246.704L157.772 246.365ZM154.164 257.751L152.411 256.787L152.399 256.809L152.388 256.832L154.164 257.751ZM151.629 262.422L149.906 261.406L149.896 261.423L149.886 261.439L151.629 262.422ZM148.411 266.801L146.871 265.524L146.867 265.53L148.411 266.801ZM138.952 277.116L137.539 275.7L138.952 277.116ZM132.223 283.441L133.583 284.907L133.584 284.906L132.223 283.441ZM122.179 292.978L123.56 294.424L123.568 294.416L123.576 294.409L122.179 292.978ZM113.695 302.028L115.214 303.328L115.221 303.32L115.227 303.313L113.695 302.028ZM109.697 308.547H107.697V310.547H109.697V308.547ZM160.015 308.547H162.015V306.547H160.015V308.547ZM160.015 329.47V331.47H162.015V329.47H160.015ZM76.1507 329.47H74.1507V331.47H76.1507V329.47ZM76.0532 324.993L74.0542 325.056L74.0543 325.058L76.0532 324.993ZM76.5408 312.343L74.5747 311.976L74.573 311.985L74.5714 311.994L76.5408 312.343ZM96.6293 283.246L95.272 281.777L95.2656 281.783L96.6293 283.246ZM105.016 276.143L103.768 274.58L103.761 274.585L103.755 274.59L105.016 276.143ZM115.255 267.676L116.563 269.189L116.573 269.181L116.582 269.173L115.255 267.676ZM124.324 258.918L122.897 257.517L122.89 257.524L122.883 257.532L124.324 258.918ZM131.638 249.09L129.864 248.167L129.86 248.173L129.857 248.18L131.638 249.09ZM206.433 272.931L204.435 273.011L204.666 278.783L208.053 274.104L206.433 272.931ZM233.835 235.077L235.455 236.25L236.039 235.444L235.748 234.492L233.835 235.077ZM229.35 224.567L227.744 225.759L227.769 225.793L227.795 225.825L229.35 224.567ZM215.015 225.151L213.602 223.735L213.591 223.746L213.58 223.757L215.015 225.151ZM210.236 232.936L208.356 232.254L208.35 232.272L208.343 232.29L210.236 232.936ZM207.701 244.321L209.68 244.609L209.681 244.605L207.701 244.321ZM206.433 256.291L204.436 256.18L204.435 256.198L204.435 256.217L206.433 256.291ZM206.238 268.066H204.238V268.106L204.24 268.146L206.238 268.066ZM237.346 258.821L239.346 258.78L239.225 252.872L235.732 257.639L237.346 258.821ZM209.261 297.162L207.648 295.98L207.073 296.765L207.335 297.702L209.261 297.162ZM227.594 309.131L228.674 310.815L228.681 310.81L228.689 310.805L227.594 309.131ZM235.006 295.897L233.086 295.334L233.08 295.356L233.074 295.378L235.006 295.897ZM236.663 285.971L238.657 286.135L238.657 286.132L236.663 285.971ZM237.248 275.169L235.25 275.088L235.249 275.108L235.249 275.129L237.248 275.169ZM237.443 263.589H239.443V263.569L239.443 263.548L237.443 263.589ZM239.004 205.494L238.072 207.264L238.082 207.269L239.004 205.494ZM250.413 215.225L248.783 216.384L248.788 216.391L248.792 216.397L250.413 215.225ZM257.434 229.725L255.529 230.332L255.531 230.339L257.434 229.725ZM261.14 246.754L259.153 246.981L259.154 246.992L259.156 247.003L261.14 246.754ZM261.238 284.317L263.225 284.538L263.226 284.536L261.238 284.317ZM257.532 302.028L255.619 301.444L255.615 301.458L257.532 302.028ZM193.366 318.765L191.797 320.006L191.804 320.014L191.811 320.023L193.366 318.765ZM186.15 305.044L184.25 305.671L184.255 305.685L184.26 305.698L186.15 305.044ZM182.346 288.307L180.36 288.535L180.361 288.547L180.362 288.558L182.346 288.307ZM181.761 255.512L179.767 255.365L179.766 255.379L179.765 255.393L181.761 255.512ZM183.419 241.889L181.451 241.533L181.449 241.546L181.447 241.559L183.419 241.889ZM191.806 218.242L193.502 219.301L193.507 219.294L193.511 219.286L191.806 218.242ZM199.217 209.484L197.952 207.935L197.943 207.942L197.935 207.949L199.217 209.484ZM209.456 203.937L210.106 205.829L210.12 205.824L210.133 205.819L209.456 203.937ZM120.326 351.871L120.691 349.905L119.266 349.64L118.571 350.912L120.326 351.871ZM143.925 356.25H145.925V354.587L144.29 354.284L143.925 356.25ZM143.925 481.393V483.393H145.925V481.393H143.925ZM118.766 481.393L116.766 481.397L116.77 483.393H118.766V481.393ZM118.571 387.779L120.571 387.775L120.559 382.108L117.011 386.527L118.571 387.779ZM89.413 413.275L87.7548 414.393L88.7844 415.92L90.391 415.02L89.413 413.275ZM75.3706 392.45L74.4777 390.661L72.4379 391.678L73.7124 393.568L75.3706 392.45ZM91.3634 382.622L92.5551 384.228L92.5585 384.225L91.3634 382.622ZM103.846 372.112L102.447 370.682L102.44 370.689L102.433 370.696L103.846 372.112ZM112.72 362.478L111.177 361.205L111.174 361.208L112.72 362.478ZM118.278 355.277L119.952 356.371L119.963 356.355L119.973 356.339L118.278 355.277ZM228.374 421.838L228.39 423.838L230.374 423.823V421.838H228.374ZM228.374 390.212H230.374V382.575L226.631 389.232L228.374 390.212ZM203.41 422.033L201.959 420.656L198.721 424.07L203.426 424.033L203.41 422.033ZM175.52 426.217L173.857 425.106L173.194 426.1L173.754 427.155L175.52 426.217ZM184.102 416.681L185.577 418.031L185.585 418.023L184.102 416.681ZM217.843 375.226L216.185 374.106L216.183 374.109L217.843 375.226ZM229.155 353.428L229.139 351.428L227.654 351.44L227.236 352.864L229.155 353.428ZM253.436 353.233H255.436V351.217L253.42 351.233L253.436 353.233ZM253.436 421.838H251.436V423.838H253.436V421.838ZM265.821 421.838H267.821V419.838H265.821V421.838ZM265.821 442.274V444.274H267.821V442.274H265.821ZM253.436 442.274V440.274H251.436V442.274H253.436ZM253.436 480.518V482.518H255.436V480.518H253.436ZM228.374 480.518H226.374V482.518H228.374V480.518ZM228.374 442.566H230.374V440.557L228.366 440.566L228.374 442.566ZM184.297 442.76L182.53 443.698L183.097 444.766L184.306 444.76L184.297 442.76ZM104.199 243.419L79.722 247.506L80.3808 251.452L104.858 247.365L104.199 243.419ZM81.9587 248.877C80.9058 245.54 80.2849 242.074 80.0984 238.477L76.1038 238.684C76.3073 242.611 76.9866 246.412 78.1441 250.081L81.9587 248.877ZM78.1011 238.58C80.1011 238.58 80.1011 238.58 80.1011 238.58C80.1011 238.58 80.1011 238.58 80.1011 238.58C80.1011 238.58 80.1011 238.58 80.1011 238.58C80.1011 238.58 80.1011 238.58 80.1011 238.58C80.1011 238.58 80.1011 238.58 80.1011 238.58C80.1011 238.58 80.1011 238.58 80.1011 238.58C80.1011 238.58 80.1011 238.58 80.1011 238.58C80.1011 238.58 80.1011 238.58 80.1011 238.579C80.1011 238.579 80.1011 238.579 80.1011 238.579C80.1011 238.579 80.1011 238.579 80.1011 238.579C80.1011 238.579 80.1011 238.579 80.1011 238.579C80.1011 238.579 80.1011 238.579 80.1011 238.579C80.1011 238.579 80.1011 238.579 80.1011 238.579C80.1011 238.578 80.1011 238.578 80.1011 238.578C80.1011 238.578 80.1011 238.578 80.1011 238.578C80.1011 238.578 80.1011 238.578 80.1011 238.578C80.1011 238.578 80.1011 238.578 80.1011 238.577C80.1011 238.577 80.1011 238.577 80.1011 238.577C80.1011 238.577 80.1011 238.577 80.1011 238.577C80.1011 238.577 80.1011 238.577 80.1011 238.576C80.1011 238.576 80.1011 238.576 80.1011 238.576C80.1011 238.576 80.1011 238.576 80.1011 238.576C80.1011 238.575 80.1011 238.575 80.1011 238.575C80.1011 238.575 80.1011 238.575 80.1011 238.575C80.1011 238.575 80.1011 238.574 80.1011 238.574C80.1011 238.574 80.1011 238.574 80.1011 238.574C80.1011 238.574 80.1011 238.573 80.1011 238.573C80.1011 238.573 80.1011 238.573 80.1011 238.573C80.1011 238.573 80.1011 238.572 80.1011 238.572C80.1011 238.572 80.1011 238.572 80.1011 238.572C80.1011 238.572 80.1011 238.571 80.1011 238.571C80.1011 238.571 80.1011 238.571 80.1011 238.571C80.1011 238.57 80.1011 238.57 80.1011 238.57C80.1011 238.57 80.1011 238.57 80.1011 238.569C80.1011 238.569 80.1011 238.569 80.1011 238.569C80.1011 238.569 80.1011 238.568 80.1011 238.568C80.1011 238.568 80.1011 238.568 80.1011 238.567C80.1011 238.567 80.1011 238.567 80.1011 238.567C80.1011 238.566 80.1011 238.566 80.1011 238.566C80.1011 238.566 80.1011 238.565 80.1011 238.565C80.1011 238.565 80.1011 238.565 80.1011 238.564C80.1011 238.564 80.1011 238.564 80.1011 238.564C80.1011 238.563 80.1011 238.563 80.1011 238.563C80.1011 238.563 80.1011 238.562 80.1011 238.562C80.1011 238.562 80.1011 238.562 80.1011 238.561C80.1011 238.561 80.1011 238.561 80.1011 238.56C80.1011 238.56 80.1011 238.56 80.1011 238.56C80.1011 238.559 80.1011 238.559 80.1011 238.559C80.1011 238.558 80.1011 238.558 80.1011 238.558C80.1011 238.558 80.1011 238.557 80.1011 238.557C80.1011 238.557 80.1011 238.556 80.1011 238.556C80.1011 238.556 80.1011 238.555 80.1011 238.555C80.1011 238.555 80.1011 238.554 80.1011 238.554C80.1011 238.554 80.1011 238.553 80.1011 238.553C80.1011 238.553 80.1011 238.552 80.1011 238.552C80.1011 238.552 80.1011 238.551 80.1011 238.551C80.1011 238.551 80.1011 238.55 80.1011 238.55C80.1011 238.55 80.1011 238.549 80.1011 238.549C80.1011 238.549 80.1011 238.548 80.1011 238.548C80.1011 238.547 80.1011 238.547 80.1011 238.547C80.1011 238.546 80.1011 238.546 80.1011 238.546C80.1011 238.545 80.1011 238.545 80.1011 238.544C80.1011 238.544 80.1011 238.544 80.1011 238.543C80.1011 238.543 80.1011 238.542 80.1011 238.542C80.1011 238.542 80.1011 238.541 80.1011 238.541C80.1011 238.54 80.1011 238.54 80.1011 238.54C80.1011 238.539 80.1011 238.539 80.1011 238.538C80.1011 238.538 80.1011 238.538 80.1011 238.537C80.1011 238.537 80.1011 238.536 80.1011 238.536C80.1011 238.535 80.1011 238.535 80.1011 238.535C80.1011 238.534 80.1011 238.534 80.1011 238.533C80.1011 238.533 80.1011 238.532 80.1011 238.532C80.1011 238.532 80.1011 238.531 80.1011 238.531C80.1011 238.53 80.1011 238.53 80.1011 238.529C80.1011 238.529 80.1011 238.528 80.1011 238.528C80.1011 238.527 80.1011 238.527 80.1011 238.526C80.1011 238.526 80.1011 238.526 80.1011 238.525C80.1011 238.525 80.1011 238.524 80.1011 238.524C80.1011 238.523 80.1011 238.523 80.1011 238.522C80.1011 238.522 80.1011 238.521 80.1011 238.521C80.1011 238.52 80.1011 238.52 80.1011 238.519C80.1011 238.519 80.1011 238.518 80.1011 238.518C80.1011 238.517 80.1011 238.517 80.1011 238.516C80.1011 238.516 80.1011 238.515 80.1011 238.515C80.1011 238.514 80.1011 238.514 80.1011 238.513C80.1011 238.513 80.1011 238.512 80.1011 238.511C80.1011 238.511 80.1011 238.51 80.1011 238.51C80.1011 238.509 80.1011 238.509 80.1011 238.508C80.1011 238.508 80.1011 238.507 80.1011 238.507C80.1011 238.506 80.1011 238.505 80.1011 238.505C80.1011 238.504 80.1011 238.504 80.1011 238.503C80.1011 238.503 80.1011 238.502 80.1011 238.502C80.1011 238.501 80.1011 238.5 80.1011 238.5C80.1011 238.499 80.1011 238.499 80.1011 238.498C80.1011 238.498 80.1011 238.497 80.1011 238.496C80.1011 238.496 80.1011 238.495 80.1011 238.495C80.1011 238.494 80.1011 238.493 80.1011 238.493C80.1011 238.492 80.1011 238.492 80.1011 238.491C80.1011 238.49 80.1011 238.49 80.1011 238.489C80.1011 238.489 80.1011 238.488 80.1011 238.487C80.1011 238.487 80.1011 238.486 80.1011 238.485C80.1011 238.485 80.1011 238.484 80.1011 238.484C80.1011 238.483 80.1011 238.482 80.1011 238.482C80.1011 238.481 80.1011 238.48 80.1011 238.48C80.1011 238.479 80.1011 238.478 80.1011 238.478C80.1011 238.477 80.1011 238.476 80.1011 238.476C80.1011 238.475 80.1011 238.475 80.1011 238.474C80.1011 238.473 80.1011 238.473 80.1011 238.472C80.1011 238.471 80.1011 238.471 80.1011 238.47C80.1011 238.469 80.1011 238.468 80.1011 238.468C80.1011 238.467 80.1011 238.466 80.1011 238.466C80.1011 238.465 80.1011 238.464 80.1011 238.464C80.1011 238.463 80.1011 238.462 80.1011 238.462C80.1011 238.461 80.1011 238.46 80.1011 238.459C80.1011 238.459 80.1011 238.458 80.1011 238.457C80.1011 238.457 80.1011 238.456 80.1011 238.455C80.1011 238.454 80.1011 238.454 80.1011 238.453C80.1011 238.452 80.1011 238.452 80.1011 238.451C80.1011 238.45 80.1011 238.449 80.1011 238.449C80.1011 238.448 80.1011 238.447 80.1011 238.446C80.1011 238.446 80.1011 238.445 80.1011 238.444C80.1011 238.443 80.1011 238.443 80.1011 238.442C80.1011 238.441 80.1011 238.44 80.1011 238.44C80.1011 238.439 80.1011 238.438 80.1011 238.437C80.1011 238.437 80.1011 238.436 80.1011 238.435C80.1011 238.434 80.1011 238.434 80.1011 238.433C80.1011 238.432 80.1011 238.431 80.1011 238.43C80.1011 238.43 80.1011 238.429 80.1011 238.428C80.1011 238.427 80.1011 238.426 80.1011 238.426C80.1011 238.425 80.1011 238.424 80.1011 238.423C80.1011 238.422 80.1011 238.422 80.1011 238.421C80.1011 238.42 80.1011 238.419 80.1011 238.418C80.1011 238.418 80.1011 238.417 80.1011 238.416C80.1011 238.415 80.1011 238.414 80.1011 238.413C80.1011 238.413 80.1011 238.412 80.1011 238.411C80.1011 238.41 80.1011 238.409 80.1011 238.408C80.1011 238.408 80.1011 238.407 80.1011 238.406C80.1011 238.405 80.1011 238.404 80.1011 238.403C80.1011 238.403 80.1011 238.402 80.1011 238.401C80.1011 238.4 80.1011 238.399 80.1011 238.398C80.1011 238.397 80.1011 238.396 80.1011 238.396C80.1011 238.395 80.1011 238.394 80.1011 238.393C80.1011 238.392 80.1011 238.391 80.1011 238.39C80.1011 238.389 80.1011 238.389 80.1011 238.388C80.1011 238.387 80.1011 238.386 80.1011 238.385C80.1011 238.384 80.1011 238.383 80.1011 238.382C80.1011 238.381 80.1011 238.38 80.1011 238.38C80.1011 238.379 80.1011 238.378 80.1011 238.377C80.1011 238.376 80.1011 238.375 80.1011 238.374C80.1011 238.373 80.1011 238.372 80.1011 238.371C80.1011 238.37 80.1011 238.369 80.1011 238.368C80.1011 238.368 80.1011 238.367 80.1011 238.366C80.1011 238.365 80.1011 238.364 80.1011 238.363C80.1011 238.362 80.1011 238.361 80.1011 238.36C80.1011 238.359 80.1011 238.358 80.1011 238.357C80.1011 238.356 80.1011 238.355 80.1011 238.354C80.1011 238.353 80.1011 238.352 80.1011 238.351C80.1011 238.35 80.1011 238.349 80.1011 238.348C80.1011 238.347 80.1011 238.346 80.1011 238.345C80.1011 238.344 80.1011 238.344 80.1011 238.343C80.1011 238.342 80.1011 238.341 80.1011 238.34C80.1011 238.339 80.1011 238.338 80.1011 238.337C80.1011 238.336 80.1011 238.335 80.1011 238.334C80.1011 238.333 80.1011 238.332 80.1011 238.33C80.1011 238.329 80.1011 238.328 80.1011 238.327C80.1011 238.326 80.1011 238.325 80.1011 238.324C80.1011 238.323 80.1011 238.322 80.1011 238.321C80.1011 238.32 80.1011 238.319 80.1011 238.318C80.1011 238.317 80.1011 238.316 80.1011 238.315C80.1011 238.314 80.1011 238.313 80.1011 238.312C80.1011 238.311 80.1011 238.31 80.1011 238.309C80.1011 238.308 80.1011 238.307 80.1011 238.306C80.1011 238.304 80.1011 238.303 80.1011 238.302C80.1011 238.301 80.1011 238.3 80.1011 238.299C80.1011 238.298 80.1011 238.297 80.1011 238.296C80.1011 238.295 80.1011 238.294 80.1011 238.293C80.1011 238.292 80.1011 238.29 80.1011 238.289C80.1011 238.288 80.1011 238.287 80.1011 238.286C80.1011 238.285 80.1011 238.284 80.1011 238.283C80.1011 238.282 80.1011 238.281 80.1011 238.279C80.1011 238.278 80.1011 238.277 80.1011 238.276C80.1011 238.275 80.1011 238.274 80.1011 238.273C80.1011 238.272 80.1011 238.27 80.1011 238.269C80.1011 238.268 80.1011 238.267 80.1011 238.266C80.1011 238.265 80.1011 238.264 80.1011 238.262C80.1011 238.261 80.1011 238.26 80.1011 238.259C80.1011 238.258 80.1011 238.257 80.1011 238.256C80.1011 238.254 80.1011 238.253 80.1011 238.252C80.1011 238.251 80.1011 238.25 80.1011 238.249C80.1011 238.247 80.1011 238.246 80.1011 238.245C80.1011 238.244 80.1011 238.243 80.1011 238.242C80.1011 238.24 80.1011 238.239 80.1011 238.238C80.1011 238.237 80.1011 238.236 80.1011 238.234C80.1011 238.233 80.1011 238.232 80.1011 238.231C80.1011 238.23 80.1011 238.228 80.1011 238.227C80.1011 238.226 80.1011 238.225 80.1011 238.224C80.1011 238.222 80.1011 238.221 80.1011 238.22C80.1011 238.219 80.1011 238.217 80.1011 238.216C80.1011 238.215 80.1011 238.214 80.1011 238.213C80.1011 238.211 80.1011 238.21 80.1011 238.209C80.1011 238.208 80.1011 238.206 80.1011 238.205C80.1011 238.204 80.1011 238.203 80.1011 238.201C80.1011 238.2 80.1011 238.199 80.1011 238.198C80.1011 238.196 80.1011 238.195 80.1011 238.194C80.1011 238.193 80.1011 238.191 80.1011 238.19C80.1011 238.189 80.1011 238.188 80.1011 238.186C80.1011 238.185 80.1011 238.184 80.1011 238.182C80.1011 238.181 80.1011 238.18 80.1011 238.179C80.1011 238.177 80.1011 238.176 80.1011 238.175C80.1011 238.173 80.1011 238.172 80.1011 238.171C80.1011 238.17 80.1011 238.168 80.1011 238.167C80.1011 238.166 80.1011 238.164 80.1011 238.163C80.1011 238.162 80.1011 238.16 80.1011 238.159C80.1011 238.158 80.1011 238.156 80.1011 238.155C80.1011 238.154 80.1011 238.152 80.1011 238.151C80.1011 238.15 80.1011 238.148 80.1011 238.147C80.1011 238.146 80.1011 238.144 80.1011 238.143C80.1011 238.142 80.1011 238.14 80.1011 238.139C80.1011 238.138 80.1011 238.136 80.1011 238.135C80.1011 238.134 80.1011 238.132 80.1011 238.131C80.1011 238.13 80.1011 238.128 80.1011 238.127C80.1011 238.125 80.1011 238.124 80.1011 238.123C80.1011 238.121 80.1011 238.12 80.1011 238.119C80.1011 238.117 80.1011 238.116 80.1011 238.114C80.1011 238.113 80.1011 238.112 80.1011 238.11C80.1011 238.109 80.1011 238.107 80.1011 238.106C80.1011 238.105 80.1011 238.103 80.1011 238.102C80.1011 238.1 80.1011 238.099 80.1011 238.098C80.1011 238.096 80.1011 238.095 80.1011 238.093C80.1011 238.092 80.1011 238.091 80.1011 238.089C80.1011 238.088 80.1011 238.086 80.1011 238.085C80.1011 238.083 80.1011 238.082 80.1011 238.081C80.1011 238.079 80.1011 238.078 80.1011 238.076C80.1011 238.075 80.1011 238.073 80.1011 238.072C80.1011 238.07 80.1011 238.069 80.1011 238.068C80.1011 238.066 80.1011 238.065 80.1011 238.063C80.1011 238.062 80.1011 238.06 80.1011 238.059C80.1011 238.057 80.1011 238.056 80.1011 238.054C80.1011 238.053 80.1011 238.051 80.1011 238.05C80.1011 238.049 80.1011 238.047 80.1011 238.046C80.1011 238.044 80.1011 238.043 80.1011 238.041C80.1011 238.04 80.1011 238.038 80.1011 238.037C80.1011 238.035 80.1011 238.034 80.1011 238.032C80.1011 238.031 80.1011 238.029 80.1011 238.028C80.1011 238.026 80.1011 238.025 80.1011 238.023C80.1011 238.022 80.1011 238.02 80.1011 238.018C80.1011 238.017 80.1011 238.015 80.1011 238.014C80.1011 238.012 80.1011 238.011 80.1011 238.009C80.1011 238.008 80.1011 238.006 80.1011 238.005C80.1011 238.003 80.1011 238.002 80.1011 238C80.1011 237.999 80.1011 237.997 80.1011 237.995C80.1011 237.994 80.1011 237.992 80.1011 237.991C80.1011 237.989 80.1011 237.988 80.1011 237.986C80.1011 237.984 80.1011 237.983 80.1011 237.981C80.1011 237.98 80.1011 237.978 80.1011 237.977C80.1011 237.975 80.1011 237.973 80.1011 237.972C80.1011 237.97 80.1011 237.969 80.1011 237.967C80.1011 237.966 80.1011 237.964 80.1011 237.962C80.1011 237.961 80.1011 237.959 80.1011 237.958C80.1011 237.956 80.1011 237.954 80.1011 237.953C80.1011 237.951 80.1011 237.95 80.1011 237.948C80.1011 237.946 80.1011 237.945 80.1011 237.943C80.1011 237.941 80.1011 237.94 80.1011 237.938C80.1011 237.937 80.1011 237.935 80.1011 237.933C80.1011 237.932 80.1011 237.93 80.1011 237.928C80.1011 237.927 80.1011 237.925 80.1011 237.923C80.1011 237.922 80.1011 237.92 80.1011 237.918C80.1011 237.917 80.1011 237.915 80.1011 237.914C80.1011 237.912 80.1011 237.91 80.1011 237.909C80.1011 237.907 80.1011 237.905 80.1011 237.904C80.1011 237.902 80.1011 237.9 80.1011 237.899C80.1011 237.897 80.1011 237.895 80.1011 237.893C80.1011 237.892 80.1011 237.89 80.1011 237.888C80.1011 237.887 80.1011 237.885 80.1011 237.883C80.1011 237.882 80.1011 237.88 80.1011 237.878C80.1011 237.877 80.1011 237.875 80.1011 237.873C80.1011 237.871 80.1011 237.87 80.1011 237.868C80.1011 237.866 80.1011 237.865 80.1011 237.863C80.1011 237.861 80.1011 237.859 80.1011 237.858C80.1011 237.856 80.1011 237.854 80.1011 237.853C80.1011 237.851 80.1011 237.849 80.1011 237.847C80.1011 237.846 80.1011 237.844 80.1011 237.842C80.1011 237.84 80.1011 237.839 80.1011 237.837C80.1011 237.835 80.1011 237.833 80.1011 237.832C80.1011 237.83 80.1011 237.828 80.1011 237.826C80.1011 237.825 80.1011 237.823 80.1011 237.821C80.1011 237.819 80.1011 237.817 80.1011 237.816C80.1011 237.814 80.1011 237.812 80.1011 237.81C80.1011 237.809 80.1011 237.807 80.1011 237.805C80.1011 237.803 80.1011 237.801 80.1011 237.8C80.1011 237.798 80.1011 237.796 80.1011 237.794C80.1011 237.792 80.1011 237.791 80.1011 237.789C80.1011 237.787 80.1011 237.785 80.1011 237.783C80.1011 237.782 80.1011 237.78 80.1011 237.778C80.1011 237.776 80.1011 237.774 80.1011 237.772C80.1011 237.771 80.1011 237.769 80.1011 237.767C80.1011 237.765 80.1011 237.763 80.1011 237.761C80.1011 237.76 80.1011 237.758 80.1011 237.756C80.1011 237.754 80.1011 237.752 80.1011 237.75C80.1011 237.749 80.1011 237.747 80.1011 237.745C80.1011 237.743 80.1011 237.741 80.1011 237.739C80.1011 237.737 80.1011 237.736 80.1011 237.734C80.1011 237.732 80.1011 237.73 80.1011 237.728C80.1011 237.726 80.1011 237.724 80.1011 237.722C80.1011 237.721 80.1011 237.719 80.1011 237.717C80.1011 237.715 80.1011 237.713 80.1011 237.711C80.1011 237.709 80.1011 237.707 80.1011 237.705C80.1011 237.704 80.1011 237.702 80.1011 237.7C80.1011 237.698 80.1011 237.696 80.1011 237.694C80.1011 237.692 80.1011 237.69 80.1011 237.688C80.1011 237.686 80.1011 237.684 80.1011 237.682C80.1011 237.681 80.1011 237.679 80.1011 237.677C80.1011 237.675 80.1011 237.673 80.1011 237.671C80.1011 237.669 80.1011 237.667 80.1011 237.665C80.1011 237.663 80.1011 237.661 80.1011 237.659C80.1011 237.657 80.1011 237.655 80.1011 237.653C80.1011 237.651 80.1011 237.649 80.1011 237.648C80.1011 237.646 80.1011 237.644 80.1011 237.642C80.1011 237.64 80.1011 237.638 80.1011 237.636C80.1011 237.634 80.1011 237.632 80.1011 237.63C80.1011 237.628 80.1011 237.626 80.1011 237.624C80.1011 237.622 80.1011 237.62 80.1011 237.618C80.1011 237.616 80.1011 237.614 80.1011 237.612C80.1011 237.61 80.1011 237.608 80.1011 237.606C80.1011 237.604 80.1011 237.602 80.1011 237.6C80.1011 237.598 80.1011 237.596 80.1011 237.594C80.1011 237.592 80.1011 237.59 80.1011 237.588C80.1011 237.586 80.1011 237.584 80.1011 237.582C80.1011 237.58 80.1011 237.578 80.1011 237.576C80.1011 237.574 80.1011 237.571 80.1011 237.569C80.1011 237.567 80.1011 237.565 80.1011 237.563C80.1011 237.561 80.1011 237.559 80.1011 237.557C80.1011 237.555 80.1011 237.553 80.1011 237.551C80.1011 237.549 80.1011 237.547 80.1011 237.545C80.1011 237.543 80.1011 237.541 80.1011 237.539C80.1011 237.537 80.1011 237.534 80.1011 237.532C80.1011 237.53 80.1011 237.528 80.1011 237.526C80.1011 237.524 80.1011 237.522 80.1011 237.52C80.1011 237.518 80.1011 237.516 80.1011 237.514C80.1011 237.511 80.1011 237.509 80.1011 237.507C80.1011 237.505 80.1011 237.503 80.1011 237.501C80.1011 237.499 80.1011 237.497 80.1011 237.495C80.1011 237.493 80.1011 237.49 80.1011 237.488C80.1011 237.486 80.1011 237.484 80.1011 237.482C80.1011 237.48 80.1011 237.478 80.1011 237.475C80.1011 237.473 80.1011 237.471 80.1011 237.469C80.1011 237.467 80.1011 237.465 80.1011 237.463C80.1011 237.46 80.1011 237.458 80.1011 237.456C80.1011 237.454 80.1011 237.452 80.1011 237.45C80.1011 237.448 80.1011 237.445 80.1011 237.443C80.1011 237.441 80.1011 237.439 80.1011 237.437C80.1011 237.435 80.1011 237.432 80.1011 237.43C80.1011 237.428 80.1011 237.426 80.1011 237.424C80.1011 237.421 80.1011 237.419 80.1011 237.417C80.1011 237.415 80.1011 237.413 80.1011 237.411C80.1011 237.408 80.1011 237.406 80.1011 237.404C80.1011 237.402 80.1011 237.4 80.1011 237.397C80.1011 237.395 80.1011 237.393 80.1011 237.391C80.1011 237.388 80.1011 237.386 80.1011 237.384C80.1011 237.382 80.1011 237.38 80.1011 237.377C80.1011 237.375 80.1011 237.373 80.1011 237.371C80.1011 237.368 80.1011 237.366 80.1011 237.364C80.1011 237.362 80.1011 237.359 80.1011 237.357C80.1011 237.355 80.1011 237.353 80.1011 237.35C80.1011 237.348 80.1011 237.346 80.1011 237.344C80.1011 237.341 80.1011 237.339 80.1011 237.337C80.1011 237.335 80.1011 237.332 80.1011 237.33C80.1011 237.328 80.1011 237.326 80.1011 237.323C80.1011 237.321 80.1011 237.319 80.1011 237.316C80.1011 237.314 80.1011 237.312 80.1011 237.31C80.1011 237.307 80.1011 237.305 80.1011 237.303C80.1011 237.3 80.1011 237.298 80.1011 237.296C80.1011 237.294 80.1011 237.291 80.1011 237.289C80.1011 237.287 80.1011 237.284 80.1011 237.282C80.1011 237.28 80.1011 237.277 80.1011 237.275C80.1011 237.273 80.1011 237.27 80.1011 237.268C80.1011 237.266 80.1011 237.263 80.1011 237.261C80.1011 237.259 80.1011 237.256 80.1011 237.254C80.1011 237.252 80.1011 237.249 80.1011 237.247C80.1011 237.245 80.1011 237.242 80.1011 237.24C80.1011 237.238 80.1011 237.235 80.1011 237.233C80.1011 237.231 80.1011 237.228 80.1011 237.226C80.1011 237.223 80.1011 237.221 80.1011 237.219C80.1011 237.216 80.1011 237.214 80.1011 237.212C80.1011 237.209 80.1011 237.207 80.1011 237.205C80.1011 237.202 80.1011 237.2 80.1011 237.197C80.1011 237.195 80.1011 237.193 80.1011 237.19C80.1011 237.188 80.1011 237.185 80.1011 237.183C80.1011 237.181 80.1011 237.178 80.1011 237.176C80.1011 237.173 80.1011 237.171 80.1011 237.169C80.1011 237.166 80.1011 237.164 80.1011 237.161C80.1011 237.159 80.1011 237.156 80.1011 237.154C80.1011 237.152 80.1011 237.149 80.1011 237.147C80.1011 237.144 80.1011 237.142 80.1011 237.139C80.1011 237.137 80.1011 237.135 80.1011 237.132C80.1011 237.13 80.1011 237.127 80.1011 237.125C80.1011 237.122 80.1011 237.12 80.1011 237.117C80.1011 237.115 80.1011 237.112 80.1011 237.11C80.1011 237.108 80.1011 237.105 80.1011 237.103C80.1011 237.1 80.1011 237.098 80.1011 237.095C80.1011 237.093 80.1011 237.09 80.1011 237.088C80.1011 237.085 80.1011 237.083 80.1011 237.08C80.1011 237.078 80.1011 237.075 80.1011 237.073C80.1011 237.07 80.1011 237.068 80.1011 237.065C80.1011 237.063 80.1011 237.06 80.1011 237.058C80.1011 237.055 80.1011 237.053 80.1011 237.05C80.1011 237.048 80.1011 237.045 80.1011 237.043C80.1011 237.04 80.1011 237.038 80.1011 237.035C80.1011 237.033 80.1011 237.03 80.1011 237.028C80.1011 237.025 80.1011 237.023 80.1011 237.02C80.1011 237.018 80.1011 237.015 80.1011 237.012C80.1011 237.01 80.1011 237.007 80.1011 237.005C80.1011 237.002 80.1011 237 80.1011 236.997C80.1011 236.995 80.1011 236.992 80.1011 236.989C80.1011 236.987 80.1011 236.984 80.1011 236.982C80.1011 236.979 80.1011 236.977 80.1011 236.974C80.1011 236.971 80.1011 236.969 80.1011 236.966C80.1011 236.964 80.1011 236.961 80.1011 236.959C80.1011 236.956 80.1011 236.953 80.1011 236.951C80.1011 236.948 80.1011 236.946 80.1011 236.943C80.1011 236.94 80.1011 236.938 80.1011 236.935C80.1011 236.933 80.1011 236.93 80.1011 236.927C80.1011 236.925 80.1011 236.922 80.1011 236.92C80.1011 236.917 80.1011 236.914 80.1011 236.912C80.1011 236.909 80.1011 236.906 80.1011 236.904C80.1011 236.901 80.1011 236.899 80.1011 236.896C80.1011 236.893 80.1011 236.891 80.1011 236.888C80.1011 236.885 80.1011 236.883 80.1011 236.88C80.1011 236.877 80.1011 236.875 80.1011 236.872C80.1011 236.869 80.1011 236.867 80.1011 236.864C80.1011 236.861 80.1011 236.859 80.1011 236.856C80.1011 236.853 80.1011 236.851 80.1011 236.848C80.1011 236.845 80.1011 236.843 80.1011 236.84C80.1011 236.837 80.1011 236.835 80.1011 236.832C80.1011 236.829 80.1011 236.827 80.1011 236.824C80.1011 236.821 80.1011 236.819 80.1011 236.816C80.1011 236.813 80.1011 236.811 80.1011 236.808C80.1011 236.805 80.1011 236.802 80.1011 236.8C80.1011 236.797 80.1011 236.794 80.1011 236.792C80.1011 236.789 80.1011 236.786 80.1011 236.783C80.1011 236.781 80.1011 236.778 80.1011 236.775C80.1011 236.772 80.1011 236.77 80.1011 236.767C80.1011 236.764 80.1011 236.762 80.1011 236.759C80.1011 236.756 80.1011 236.753 80.1011 236.751C80.1011 236.748 80.1011 236.745 80.1011 236.742C80.1011 236.74 80.1011 236.737 80.1011 236.734C80.1011 236.731 80.1011 236.729 80.1011 236.726C80.1011 236.723 80.1011 236.72 80.1011 236.717C80.1011 236.715 80.1011 236.712 80.1011 236.709C80.1011 236.706 80.1011 236.704 80.1011 236.701C80.1011 236.698 80.1011 236.695 80.1011 236.692C80.1011 236.69 80.1011 236.687 80.1011 236.684C80.1011 236.681 80.1011 236.678 80.1011 236.676C80.1011 236.673 80.1011 236.67 80.1011 236.667C80.1011 236.664 80.1011 236.662 80.1011 236.659C80.1011 236.656 80.1011 236.653 80.1011 236.65C80.1011 236.648 80.1011 236.645 80.1011 236.642C80.1011 236.639 80.1011 236.636 80.1011 236.633C80.1011 236.631 80.1011 236.628 80.1011 236.625C80.1011 236.622 80.1011 236.619 80.1011 236.616C80.1011 236.614 80.1011 236.611 80.1011 236.608C80.1011 236.605 80.1011 236.602 80.1011 236.599C80.1011 236.596 80.1011 236.594 80.1011 236.591C80.1011 236.588 80.1011 236.585 80.1011 236.582C80.1011 236.579 80.1011 236.576 80.1011 236.573C80.1011 236.571 80.1011 236.568 80.1011 236.565C80.1011 236.562 80.1011 236.559 80.1011 236.556C80.1011 236.553 80.1011 236.55 80.1011 236.547C80.1011 236.545 80.1011 236.542 80.1011 236.539C80.1011 236.536 80.1011 236.533 80.1011 236.53C80.1011 236.527 80.1011 236.524 80.1011 236.521C80.1011 236.518 80.1011 236.515 80.1011 236.513C80.1011 236.51 80.1011 236.507 80.1011 236.504C80.1011 236.501 80.1011 236.498 80.1011 236.495C80.1011 236.492 80.1011 236.489 80.1011 236.486C80.1011 236.483 80.1011 236.48 80.1011 236.477C80.1011 236.474 80.1011 236.471 80.1011 236.469C80.1011 236.466 80.1011 236.463 80.1011 236.46C80.1011 236.457 80.1011 236.454 80.1011 236.451C80.1011 236.448 80.1011 236.445 80.1011 236.442C80.1011 236.439 80.1011 236.436 80.1011 236.433C80.1011 236.43 80.1011 236.427 80.1011 236.424C80.1011 236.421 80.1011 236.418 80.1011 236.415C80.1011 236.412 80.1011 236.409 80.1011 236.406C80.1011 236.403 80.1011 236.4 80.1011 236.397C80.1011 236.394 80.1011 236.391 80.1011 236.388C80.1011 236.385 80.1011 236.382 80.1011 236.379C80.1011 236.376 80.1011 236.373 80.1011 236.37C80.1011 236.367 80.1011 236.364 80.1011 236.361C80.1011 236.358 80.1011 236.355 80.1011 236.352C80.1011 236.349 80.1011 236.346 80.1011 236.343C80.1011 236.34 80.1011 236.337 80.1011 236.334C80.1011 236.331 80.1011 236.328 80.1011 236.324C80.1011 236.321 80.1011 236.318 80.1011 236.315C80.1011 236.312 80.1011 236.309 80.1011 236.306C80.1011 236.303 80.1011 236.3 80.1011 236.297C80.1011 236.294 80.1011 236.291 80.1011 236.288C80.1011 236.285 80.1011 236.282 80.1011 236.279C80.1011 236.275 80.1011 236.272 80.1011 236.269C80.1011 236.266 80.1011 236.263 80.1011 236.26C80.1011 236.257 80.1011 236.254 80.1011 236.251C80.1011 236.248 80.1011 236.244 80.1011 236.241C80.1011 236.238 80.1011 236.235 80.1011 236.232C80.1011 236.229 80.1011 236.226 80.1011 236.223C80.1011 236.22 80.1011 236.216 80.1011 236.213C80.1011 236.21 80.1011 236.207 80.1011 236.204C80.1011 236.201 80.1011 236.198 80.1011 236.195C80.1011 236.191 80.1011 236.188 80.1011 236.185C80.1011 236.182 80.1011 236.179 80.1011 236.176C80.1011 236.173 80.1011 236.169 80.1011 236.166C80.1011 236.163 80.1011 236.16 80.1011 236.157C80.1011 236.154 80.1011 236.15 80.1011 236.147H76.1011C76.1011 236.15 76.1011 236.154 76.1011 236.157C76.1011 236.16 76.1011 236.163 76.1011 236.166C76.1011 236.169 76.1011 236.173 76.1011 236.176C76.1011 236.179 76.1011 236.182 76.1011 236.185C76.1011 236.188 76.1011 236.191 76.1011 236.195C76.1011 236.198 76.1011 236.201 76.1011 236.204C76.1011 236.207 76.1011 236.21 76.1011 236.213C76.1011 236.216 76.1011 236.22 76.1011 236.223C76.1011 236.226 76.1011 236.229 76.1011 236.232C76.1011 236.235 76.1011 236.238 76.1011 236.241C76.1011 236.244 76.1011 236.248 76.1011 236.251C76.1011 236.254 76.1011 236.257 76.1011 236.26C76.1011 236.263 76.1011 236.266 76.1011 236.269C76.1011 236.272 76.1011 236.275 76.1011 236.279C76.1011 236.282 76.1011 236.285 76.1011 236.288C76.1011 236.291 76.1011 236.294 76.1011 236.297C76.1011 236.3 76.1011 236.303 76.1011 236.306C76.1011 236.309 76.1011 236.312 76.1011 236.315C76.1011 236.318 76.1011 236.321 76.1011 236.324C76.1011 236.328 76.1011 236.331 76.1011 236.334C76.1011 236.337 76.1011 236.34 76.1011 236.343C76.1011 236.346 76.1011 236.349 76.1011 236.352C76.1011 236.355 76.1011 236.358 76.1011 236.361C76.1011 236.364 76.1011 236.367 76.1011 236.37C76.1011 236.373 76.1011 236.376 76.1011 236.379C76.1011 236.382 76.1011 236.385 76.1011 236.388C76.1011 236.391 76.1011 236.394 76.1011 236.397C76.1011 236.4 76.1011 236.403 76.1011 236.406C76.1011 236.409 76.1011 236.412 76.1011 236.415C76.1011 236.418 76.1011 236.421 76.1011 236.424C76.1011 236.427 76.1011 236.43 76.1011 236.433C76.1011 236.436 76.1011 236.439 76.1011 236.442C76.1011 236.445 76.1011 236.448 76.1011 236.451C76.1011 236.454 76.1011 236.457 76.1011 236.46C76.1011 236.463 76.1011 236.466 76.1011 236.469C76.1011 236.471 76.1011 236.474 76.1011 236.477C76.1011 236.48 76.1011 236.483 76.1011 236.486C76.1011 236.489 76.1011 236.492 76.1011 236.495C76.1011 236.498 76.1011 236.501 76.1011 236.504C76.1011 236.507 76.1011 236.51 76.1011 236.513C76.1011 236.515 76.1011 236.518 76.1011 236.521C76.1011 236.524 76.1011 236.527 76.1011 236.53C76.1011 236.533 76.1011 236.536 76.1011 236.539C76.1011 236.542 76.1011 236.545 76.1011 236.547C76.1011 236.55 76.1011 236.553 76.1011 236.556C76.1011 236.559 76.1011 236.562 76.1011 236.565C76.1011 236.568 76.1011 236.571 76.1011 236.573C76.1011 236.576 76.1011 236.579 76.1011 236.582C76.1011 236.585 76.1011 236.588 76.1011 236.591C76.1011 236.594 76.1011 236.596 76.1011 236.599C76.1011 236.602 76.1011 236.605 76.1011 236.608C76.1011 236.611 76.1011 236.614 76.1011 236.616C76.1011 236.619 76.1011 236.622 76.1011 236.625C76.1011 236.628 76.1011 236.631 76.1011 236.633C76.1011 236.636 76.1011 236.639 76.1011 236.642C76.1011 236.645 76.1011 236.648 76.1011 236.65C76.1011 236.653 76.1011 236.656 76.1011 236.659C76.1011 236.662 76.1011 236.664 76.1011 236.667C76.1011 236.67 76.1011 236.673 76.1011 236.676C76.1011 236.678 76.1011 236.681 76.1011 236.684C76.1011 236.687 76.1011 236.69 76.1011 236.692C76.1011 236.695 76.1011 236.698 76.1011 236.701C76.1011 236.704 76.1011 236.706 76.1011 236.709C76.1011 236.712 76.1011 236.715 76.1011 236.717C76.1011 236.72 76.1011 236.723 76.1011 236.726C76.1011 236.729 76.1011 236.731 76.1011 236.734C76.1011 236.737 76.1011 236.74 76.1011 236.742C76.1011 236.745 76.1011 236.748 76.1011 236.751C76.1011 236.753 76.1011 236.756 76.1011 236.759C76.1011 236.762 76.1011 236.764 76.1011 236.767C76.1011 236.77 76.1011 236.772 76.1011 236.775C76.1011 236.778 76.1011 236.781 76.1011 236.783C76.1011 236.786 76.1011 236.789 76.1011 236.792C76.1011 236.794 76.1011 236.797 76.1011 236.8C76.1011 236.802 76.1011 236.805 76.1011 236.808C76.1011 236.811 76.1011 236.813 76.1011 236.816C76.1011 236.819 76.1011 236.821 76.1011 236.824C76.1011 236.827 76.1011 236.829 76.1011 236.832C76.1011 236.835 76.1011 236.837 76.1011 236.84C76.1011 236.843 76.1011 236.845 76.1011 236.848C76.1011 236.851 76.1011 236.853 76.1011 236.856C76.1011 236.859 76.1011 236.861 76.1011 236.864C76.1011 236.867 76.1011 236.869 76.1011 236.872C76.1011 236.875 76.1011 236.877 76.1011 236.88C76.1011 236.883 76.1011 236.885 76.1011 236.888C76.1011 236.891 76.1011 236.893 76.1011 236.896C76.1011 236.899 76.1011 236.901 76.1011 236.904C76.1011 236.906 76.1011 236.909 76.1011 236.912C76.1011 236.914 76.1011 236.917 76.1011 236.92C76.1011 236.922 76.1011 236.925 76.1011 236.927C76.1011 236.93 76.1011 236.933 76.1011 236.935C76.1011 236.938 76.1011 236.94 76.1011 236.943C76.1011 236.946 76.1011 236.948 76.1011 236.951C76.1011 236.953 76.1011 236.956 76.1011 236.959C76.1011 236.961 76.1011 236.964 76.1011 236.966C76.1011 236.969 76.1011 236.971 76.1011 236.974C76.1011 236.977 76.1011 236.979 76.1011 236.982C76.1011 236.984 76.1011 236.987 76.1011 236.989C76.1011 236.992 76.1011 236.995 76.1011 236.997C76.1011 237 76.1011 237.002 76.1011 237.005C76.1011 237.007 76.1011 237.01 76.1011 237.012C76.1011 237.015 76.1011 237.018 76.1011 237.02C76.1011 237.023 76.1011 237.025 76.1011 237.028C76.1011 237.03 76.1011 237.033 76.1011 237.035C76.1011 237.038 76.1011 237.04 76.1011 237.043C76.1011 237.045 76.1011 237.048 76.1011 237.05C76.1011 237.053 76.1011 237.055 76.1011 237.058C76.1011 237.06 76.1011 237.063 76.1011 237.065C76.1011 237.068 76.1011 237.07 76.1011 237.073C76.1011 237.075 76.1011 237.078 76.1011 237.08C76.1011 237.083 76.1011 237.085 76.1011 237.088C76.1011 237.09 76.1011 237.093 76.1011 237.095C76.1011 237.098 76.1011 237.1 76.1011 237.103C76.1011 237.105 76.1011 237.108 76.1011 237.11C76.1011 237.112 76.1011 237.115 76.1011 237.117C76.1011 237.12 76.1011 237.122 76.1011 237.125C76.1011 237.127 76.1011 237.13 76.1011 237.132C76.1011 237.135 76.1011 237.137 76.1011 237.139C76.1011 237.142 76.1011 237.144 76.1011 237.147C76.1011 237.149 76.1011 237.152 76.1011 237.154C76.1011 237.156 76.1011 237.159 76.1011 237.161C76.1011 237.164 76.1011 237.166 76.1011 237.169C76.1011 237.171 76.1011 237.173 76.1011 237.176C76.1011 237.178 76.1011 237.181 76.1011 237.183C76.1011 237.185 76.1011 237.188 76.1011 237.19C76.1011 237.193 76.1011 237.195 76.1011 237.197C76.1011 237.2 76.1011 237.202 76.1011 237.205C76.1011 237.207 76.1011 237.209 76.1011 237.212C76.1011 237.214 76.1011 237.216 76.1011 237.219C76.1011 237.221 76.1011 237.223 76.1011 237.226C76.1011 237.228 76.1011 237.231 76.1011 237.233C76.1011 237.235 76.1011 237.238 76.1011 237.24C76.1011 237.242 76.1011 237.245 76.1011 237.247C76.1011 237.249 76.1011 237.252 76.1011 237.254C76.1011 237.256 76.1011 237.259 76.1011 237.261C76.1011 237.263 76.1011 237.266 76.1011 237.268C76.1011 237.27 76.1011 237.273 76.1011 237.275C76.1011 237.277 76.1011 237.28 76.1011 237.282C76.1011 237.284 76.1011 237.287 76.1011 237.289C76.1011 237.291 76.1011 237.294 76.1011 237.296C76.1011 237.298 76.1011 237.3 76.1011 237.303C76.1011 237.305 76.1011 237.307 76.1011 237.31C76.1011 237.312 76.1011 237.314 76.1011 237.316C76.1011 237.319 76.1011 237.321 76.1011 237.323C76.1011 237.326 76.1011 237.328 76.1011 237.33C76.1011 237.332 76.1011 237.335 76.1011 237.337C76.1011 237.339 76.1011 237.341 76.1011 237.344C76.1011 237.346 76.1011 237.348 76.1011 237.35C76.1011 237.353 76.1011 237.355 76.1011 237.357C76.1011 237.359 76.1011 237.362 76.1011 237.364C76.1011 237.366 76.1011 237.368 76.1011 237.371C76.1011 237.373 76.1011 237.375 76.1011 237.377C76.1011 237.38 76.1011 237.382 76.1011 237.384C76.1011 237.386 76.1011 237.388 76.1011 237.391C76.1011 237.393 76.1011 237.395 76.1011 237.397C76.1011 237.4 76.1011 237.402 76.1011 237.404C76.1011 237.406 76.1011 237.408 76.1011 237.411C76.1011 237.413 76.1011 237.415 76.1011 237.417C76.1011 237.419 76.1011 237.421 76.1011 237.424C76.1011 237.426 76.1011 237.428 76.1011 237.43C76.1011 237.432 76.1011 237.435 76.1011 237.437C76.1011 237.439 76.1011 237.441 76.1011 237.443C76.1011 237.445 76.1011 237.448 76.1011 237.45C76.1011 237.452 76.1011 237.454 76.1011 237.456C76.1011 237.458 76.1011 237.46 76.1011 237.463C76.1011 237.465 76.1011 237.467 76.1011 237.469C76.1011 237.471 76.1011 237.473 76.1011 237.475C76.1011 237.478 76.1011 237.48 76.1011 237.482C76.1011 237.484 76.1011 237.486 76.1011 237.488C76.1011 237.49 76.1011 237.493 76.1011 237.495C76.1011 237.497 76.1011 237.499 76.1011 237.501C76.1011 237.503 76.1011 237.505 76.1011 237.507C76.1011 237.509 76.1011 237.511 76.1011 237.514C76.1011 237.516 76.1011 237.518 76.1011 237.52C76.1011 237.522 76.1011 237.524 76.1011 237.526C76.1011 237.528 76.1011 237.53 76.1011 237.532C76.1011 237.534 76.1011 237.537 76.1011 237.539C76.1011 237.541 76.1011 237.543 76.1011 237.545C76.1011 237.547 76.1011 237.549 76.1011 237.551C76.1011 237.553 76.1011 237.555 76.1011 237.557C76.1011 237.559 76.1011 237.561 76.1011 237.563C76.1011 237.565 76.1011 237.567 76.1011 237.569C76.1011 237.571 76.1011 237.574 76.1011 237.576C76.1011 237.578 76.1011 237.58 76.1011 237.582C76.1011 237.584 76.1011 237.586 76.1011 237.588C76.1011 237.59 76.1011 237.592 76.1011 237.594C76.1011 237.596 76.1011 237.598 76.1011 237.6C76.1011 237.602 76.1011 237.604 76.1011 237.606C76.1011 237.608 76.1011 237.61 76.1011 237.612C76.1011 237.614 76.1011 237.616 76.1011 237.618C76.1011 237.62 76.1011 237.622 76.1011 237.624C76.1011 237.626 76.1011 237.628 76.1011 237.63C76.1011 237.632 76.1011 237.634 76.1011 237.636C76.1011 237.638 76.1011 237.64 76.1011 237.642C76.1011 237.644 76.1011 237.646 76.1011 237.648C76.1011 237.649 76.1011 237.651 76.1011 237.653C76.1011 237.655 76.1011 237.657 76.1011 237.659C76.1011 237.661 76.1011 237.663 76.1011 237.665C76.1011 237.667 76.1011 237.669 76.1011 237.671C76.1011 237.673 76.1011 237.675 76.1011 237.677C76.1011 237.679 76.1011 237.681 76.1011 237.682C76.1011 237.684 76.1011 237.686 76.1011 237.688C76.1011 237.69 76.1011 237.692 76.1011 237.694C76.1011 237.696 76.1011 237.698 76.1011 237.7C76.1011 237.702 76.1011 237.704 76.1011 237.705C76.1011 237.707 76.1011 237.709 76.1011 237.711C76.1011 237.713 76.1011 237.715 76.1011 237.717C76.1011 237.719 76.1011 237.721 76.1011 237.722C76.1011 237.724 76.1011 237.726 76.1011 237.728C76.1011 237.73 76.1011 237.732 76.1011 237.734C76.1011 237.736 76.1011 237.737 76.1011 237.739C76.1011 237.741 76.1011 237.743 76.1011 237.745C76.1011 237.747 76.1011 237.749 76.1011 237.75C76.1011 237.752 76.1011 237.754 76.1011 237.756C76.1011 237.758 76.1011 237.76 76.1011 237.761C76.1011 237.763 76.1011 237.765 76.1011 237.767C76.1011 237.769 76.1011 237.771 76.1011 237.772C76.1011 237.774 76.1011 237.776 76.1011 237.778C76.1011 237.78 76.1011 237.782 76.1011 237.783C76.1011 237.785 76.1011 237.787 76.1011 237.789C76.1011 237.791 76.1011 237.792 76.1011 237.794C76.1011 237.796 76.1011 237.798 76.1011 237.8C76.1011 237.801 76.1011 237.803 76.1011 237.805C76.1011 237.807 76.1011 237.809 76.1011 237.81C76.1011 237.812 76.1011 237.814 76.1011 237.816C76.1011 237.817 76.1011 237.819 76.1011 237.821C76.1011 237.823 76.1011 237.825 76.1011 237.826C76.1011 237.828 76.1011 237.83 76.1011 237.832C76.1011 237.833 76.1011 237.835 76.1011 237.837C76.1011 237.839 76.1011 237.84 76.1011 237.842C76.1011 237.844 76.1011 237.846 76.1011 237.847C76.1011 237.849 76.1011 237.851 76.1011 237.853C76.1011 237.854 76.1011 237.856 76.1011 237.858C76.1011 237.859 76.1011 237.861 76.1011 237.863C76.1011 237.865 76.1011 237.866 76.1011 237.868C76.1011 237.87 76.1011 237.871 76.1011 237.873C76.1011 237.875 76.1011 237.877 76.1011 237.878C76.1011 237.88 76.1011 237.882 76.1011 237.883C76.1011 237.885 76.1011 237.887 76.1011 237.888C76.1011 237.89 76.1011 237.892 76.1011 237.893C76.1011 237.895 76.1011 237.897 76.1011 237.899C76.1011 237.9 76.1011 237.902 76.1011 237.904C76.1011 237.905 76.1011 237.907 76.1011 237.909C76.1011 237.91 76.1011 237.912 76.1011 237.914C76.1011 237.915 76.1011 237.917 76.1011 237.918C76.1011 237.92 76.1011 237.922 76.1011 237.923C76.1011 237.925 76.1011 237.927 76.1011 237.928C76.1011 237.93 76.1011 237.932 76.1011 237.933C76.1011 237.935 76.1011 237.937 76.1011 237.938C76.1011 237.94 76.1011 237.941 76.1011 237.943C76.1011 237.945 76.1011 237.946 76.1011 237.948C76.1011 237.95 76.1011 237.951 76.1011 237.953C76.1011 237.954 76.1011 237.956 76.1011 237.958C76.1011 237.959 76.1011 237.961 76.1011 237.962C76.1011 237.964 76.1011 237.966 76.1011 237.967C76.1011 237.969 76.1011 237.97 76.1011 237.972C76.1011 237.973 76.1011 237.975 76.1011 237.977C76.1011 237.978 76.1011 237.98 76.1011 237.981C76.1011 237.983 76.1011 237.984 76.1011 237.986C76.1011 237.988 76.1011 237.989 76.1011 237.991C76.1011 237.992 76.1011 237.994 76.1011 237.995C76.1011 237.997 76.1011 237.999 76.1011 238C76.1011 238.002 76.1011 238.003 76.1011 238.005C76.1011 238.006 76.1011 238.008 76.1011 238.009C76.1011 238.011 76.1011 238.012 76.1011 238.014C76.1011 238.015 76.1011 238.017 76.1011 238.018C76.1011 238.02 76.1011 238.022 76.1011 238.023C76.1011 238.025 76.1011 238.026 76.1011 238.028C76.1011 238.029 76.1011 238.031 76.1011 238.032C76.1011 238.034 76.1011 238.035 76.1011 238.037C76.1011 238.038 76.1011 238.04 76.1011 238.041C76.1011 238.043 76.1011 238.044 76.1011 238.046C76.1011 238.047 76.1011 238.049 76.1011 238.05C76.1011 238.051 76.1011 238.053 76.1011 238.054C76.1011 238.056 76.1011 238.057 76.1011 238.059C76.1011 238.06 76.1011 238.062 76.1011 238.063C76.1011 238.065 76.1011 238.066 76.1011 238.068C76.1011 238.069 76.1011 238.07 76.1011 238.072C76.1011 238.073 76.1011 238.075 76.1011 238.076C76.1011 238.078 76.1011 238.079 76.1011 238.081C76.1011 238.082 76.1011 238.083 76.1011 238.085C76.1011 238.086 76.1011 238.088 76.1011 238.089C76.1011 238.091 76.1011 238.092 76.1011 238.093C76.1011 238.095 76.1011 238.096 76.1011 238.098C76.1011 238.099 76.1011 238.1 76.1011 238.102C76.1011 238.103 76.1011 238.105 76.1011 238.106C76.1011 238.107 76.1011 238.109 76.1011 238.11C76.1011 238.112 76.1011 238.113 76.1011 238.114C76.1011 238.116 76.1011 238.117 76.1011 238.119C76.1011 238.12 76.1011 238.121 76.1011 238.123C76.1011 238.124 76.1011 238.125 76.1011 238.127C76.1011 238.128 76.1011 238.13 76.1011 238.131C76.1011 238.132 76.1011 238.134 76.1011 238.135C76.1011 238.136 76.1011 238.138 76.1011 238.139C76.1011 238.14 76.1011 238.142 76.1011 238.143C76.1011 238.144 76.1011 238.146 76.1011 238.147C76.1011 238.148 76.1011 238.15 76.1011 238.151C76.1011 238.152 76.1011 238.154 76.1011 238.155C76.1011 238.156 76.1011 238.158 76.1011 238.159C76.1011 238.16 76.1011 238.162 76.1011 238.163C76.1011 238.164 76.1011 238.166 76.1011 238.167C76.1011 238.168 76.1011 238.17 76.1011 238.171C76.1011 238.172 76.1011 238.173 76.1011 238.175C76.1011 238.176 76.1011 238.177 76.1011 238.179C76.1011 238.18 76.1011 238.181 76.1011 238.182C76.1011 238.184 76.1011 238.185 76.1011 238.186C76.1011 238.188 76.1011 238.189 76.1011 238.19C76.1011 238.191 76.1011 238.193 76.1011 238.194C76.1011 238.195 76.1011 238.196 76.1011 238.198C76.1011 238.199 76.1011 238.2 76.1011 238.201C76.1011 238.203 76.1011 238.204 76.1011 238.205C76.1011 238.206 76.1011 238.208 76.1011 238.209C76.1011 238.21 76.1011 238.211 76.1011 238.213C76.1011 238.214 76.1011 238.215 76.1011 238.216C76.1011 238.217 76.1011 238.219 76.1011 238.22C76.1011 238.221 76.1011 238.222 76.1011 238.224C76.1011 238.225 76.1011 238.226 76.1011 238.227C76.1011 238.228 76.1011 238.23 76.1011 238.231C76.1011 238.232 76.1011 238.233 76.1011 238.234C76.1011 238.236 76.1011 238.237 76.1011 238.238C76.1011 238.239 76.1011 238.24 76.1011 238.242C76.1011 238.243 76.1011 238.244 76.1011 238.245C76.1011 238.246 76.1011 238.247 76.1011 238.249C76.1011 238.25 76.1011 238.251 76.1011 238.252C76.1011 238.253 76.1011 238.254 76.1011 238.256C76.1011 238.257 76.1011 238.258 76.1011 238.259C76.1011 238.26 76.1011 238.261 76.1011 238.262C76.1011 238.264 76.1011 238.265 76.1011 238.266C76.1011 238.267 76.1011 238.268 76.1011 238.269C76.1011 238.27 76.1011 238.272 76.1011 238.273C76.1011 238.274 76.1011 238.275 76.1011 238.276C76.1011 238.277 76.1011 238.278 76.1011 238.279C76.1011 238.281 76.1011 238.282 76.1011 238.283C76.1011 238.284 76.1011 238.285 76.1011 238.286C76.1011 238.287 76.1011 238.288 76.1011 238.289C76.1011 238.29 76.1011 238.292 76.1011 238.293C76.1011 238.294 76.1011 238.295 76.1011 238.296C76.1011 238.297 76.1011 238.298 76.1011 238.299C76.1011 238.3 76.1011 238.301 76.1011 238.302C76.1011 238.303 76.1011 238.304 76.1011 238.306C76.1011 238.307 76.1011 238.308 76.1011 238.309C76.1011 238.31 76.1011 238.311 76.1011 238.312C76.1011 238.313 76.1011 238.314 76.1011 238.315C76.1011 238.316 76.1011 238.317 76.1011 238.318C76.1011 238.319 76.1011 238.32 76.1011 238.321C76.1011 238.322 76.1011 238.323 76.1011 238.324C76.1011 238.325 76.1011 238.326 76.1011 238.327C76.1011 238.328 76.1011 238.329 76.1011 238.33C76.1011 238.332 76.1011 238.333 76.1011 238.334C76.1011 238.335 76.1011 238.336 76.1011 238.337C76.1011 238.338 76.1011 238.339 76.1011 238.34C76.1011 238.341 76.1011 238.342 76.1011 238.343C76.1011 238.344 76.1011 238.344 76.1011 238.345C76.1011 238.346 76.1011 238.347 76.1011 238.348C76.1011 238.349 76.1011 238.35 76.1011 238.351C76.1011 238.352 76.1011 238.353 76.1011 238.354C76.1011 238.355 76.1011 238.356 76.1011 238.357C76.1011 238.358 76.1011 238.359 76.1011 238.36C76.1011 238.361 76.1011 238.362 76.1011 238.363C76.1011 238.364 76.1011 238.365 76.1011 238.366C76.1011 238.367 76.1011 238.368 76.1011 238.368C76.1011 238.369 76.1011 238.37 76.1011 238.371C76.1011 238.372 76.1011 238.373 76.1011 238.374C76.1011 238.375 76.1011 238.376 76.1011 238.377C76.1011 238.378 76.1011 238.379 76.1011 238.38C76.1011 238.38 76.1011 238.381 76.1011 238.382C76.1011 238.383 76.1011 238.384 76.1011 238.385C76.1011 238.386 76.1011 238.387 76.1011 238.388C76.1011 238.389 76.1011 238.389 76.1011 238.39C76.1011 238.391 76.1011 238.392 76.1011 238.393C76.1011 238.394 76.1011 238.395 76.1011 238.396C76.1011 238.396 76.1011 238.397 76.1011 238.398C76.1011 238.399 76.1011 238.4 76.1011 238.401C76.1011 238.402 76.1011 238.403 76.1011 238.403C76.1011 238.404 76.1011 238.405 76.1011 238.406C76.1011 238.407 76.1011 238.408 76.1011 238.408C76.1011 238.409 76.1011 238.41 76.1011 238.411C76.1011 238.412 76.1011 238.413 76.1011 238.413C76.1011 238.414 76.1011 238.415 76.1011 238.416C76.1011 238.417 76.1011 238.418 76.1011 238.418C76.1011 238.419 76.1011 238.42 76.1011 238.421C76.1011 238.422 76.1011 238.422 76.1011 238.423C76.1011 238.424 76.1011 238.425 76.1011 238.426C76.1011 238.426 76.1011 238.427 76.1011 238.428C76.1011 238.429 76.1011 238.43 76.1011 238.43C76.1011 238.431 76.1011 238.432 76.1011 238.433C76.1011 238.434 76.1011 238.434 76.1011 238.435C76.1011 238.436 76.1011 238.437 76.1011 238.437C76.1011 238.438 76.1011 238.439 76.1011 238.44C76.1011 238.44 76.1011 238.441 76.1011 238.442C76.1011 238.443 76.1011 238.443 76.1011 238.444C76.1011 238.445 76.1011 238.446 76.1011 238.446C76.1011 238.447 76.1011 238.448 76.1011 238.449C76.1011 238.449 76.1011 238.45 76.1011 238.451C76.1011 238.452 76.1011 238.452 76.1011 238.453C76.1011 238.454 76.1011 238.454 76.1011 238.455C76.1011 238.456 76.1011 238.457 76.1011 238.457C76.1011 238.458 76.1011 238.459 76.1011 238.459C76.1011 238.46 76.1011 238.461 76.1011 238.462C76.1011 238.462 76.1011 238.463 76.1011 238.464C76.1011 238.464 76.1011 238.465 76.1011 238.466C76.1011 238.466 76.1011 238.467 76.1011 238.468C76.1011 238.468 76.1011 238.469 76.1011 238.47C76.1011 238.471 76.1011 238.471 76.1011 238.472C76.1011 238.473 76.1011 238.473 76.1011 238.474C76.1011 238.475 76.1011 238.475 76.1011 238.476C76.1011 238.476 76.1011 238.477 76.1011 238.478C76.1011 238.478 76.1011 238.479 76.1011 238.48C76.1011 238.48 76.1011 238.481 76.1011 238.482C76.1011 238.482 76.1011 238.483 76.1011 238.484C76.1011 238.484 76.1011 238.485 76.1011 238.485C76.1011 238.486 76.1011 238.487 76.1011 238.487C76.1011 238.488 76.1011 238.489 76.1011 238.489C76.1011 238.49 76.1011 238.49 76.1011 238.491C76.1011 238.492 76.1011 238.492 76.1011 238.493C76.1011 238.493 76.1011 238.494 76.1011 238.495C76.1011 238.495 76.1011 238.496 76.1011 238.496C76.1011 238.497 76.1011 238.498 76.1011 238.498C76.1011 238.499 76.1011 238.499 76.1011 238.5C76.1011 238.5 76.1011 238.501 76.1011 238.502C76.1011 238.502 76.1011 238.503 76.1011 238.503C76.1011 238.504 76.1011 238.504 76.1011 238.505C76.1011 238.505 76.1011 238.506 76.1011 238.507C76.1011 238.507 76.1011 238.508 76.1011 238.508C76.1011 238.509 76.1011 238.509 76.1011 238.51C76.1011 238.51 76.1011 238.511 76.1011 238.511C76.1011 238.512 76.1011 238.513 76.1011 238.513C76.1011 238.514 76.1011 238.514 76.1011 238.515C76.1011 238.515 76.1011 238.516 76.1011 238.516C76.1011 238.517 76.1011 238.517 76.1011 238.518C76.1011 238.518 76.1011 238.519 76.1011 238.519C76.1011 238.52 76.1011 238.52 76.1011 238.521C76.1011 238.521 76.1011 238.522 76.1011 238.522C76.1011 238.523 76.1011 238.523 76.1011 238.524C76.1011 238.524 76.1011 238.525 76.1011 238.525C76.1011 238.526 76.1011 238.526 76.1011 238.526C76.1011 238.527 76.1011 238.527 76.1011 238.528C76.1011 238.528 76.1011 238.529 76.1011 238.529C76.1011 238.53 76.1011 238.53 76.1011 238.531C76.1011 238.531 76.1011 238.532 76.1011 238.532C76.1011 238.532 76.1011 238.533 76.1011 238.533C76.1011 238.534 76.1011 238.534 76.1011 238.535C76.1011 238.535 76.1011 238.535 76.1011 238.536C76.1011 238.536 76.1011 238.537 76.1011 238.537C76.1011 238.538 76.1011 238.538 76.1011 238.538C76.1011 238.539 76.1011 238.539 76.1011 238.54C76.1011 238.54 76.1011 238.54 76.1011 238.541C76.1011 238.541 76.1011 238.542 76.1011 238.542C76.1011 238.542 76.1011 238.543 76.1011 238.543C76.1011 238.544 76.1011 238.544 76.1011 238.544C76.1011 238.545 76.1011 238.545 76.1011 238.546C76.1011 238.546 76.1011 238.546 76.1011 238.547C76.1011 238.547 76.1011 238.547 76.1011 238.548C76.1011 238.548 76.1011 238.549 76.1011 238.549C76.1011 238.549 76.1011 238.55 76.1011 238.55C76.1011 238.55 76.1011 238.551 76.1011 238.551C76.1011 238.551 76.1011 238.552 76.1011 238.552C76.1011 238.552 76.1011 238.553 76.1011 238.553C76.1011 238.553 76.1011 238.554 76.1011 238.554C76.1011 238.554 76.1011 238.555 76.1011 238.555C76.1011 238.555 76.1011 238.556 76.1011 238.556C76.1011 238.556 76.1011 238.557 76.1011 238.557C76.1011 238.557 76.1011 238.558 76.1011 238.558C76.1011 238.558 76.1011 238.558 76.1011 238.559C76.1011 238.559 76.1011 238.559 76.1011 238.56C76.1011 238.56 76.1011 238.56 76.1011 238.56C76.1011 238.561 76.1011 238.561 76.1011 238.561C76.1011 238.562 76.1011 238.562 76.1011 238.562C76.1011 238.562 76.1011 238.563 76.1011 238.563C76.1011 238.563 76.1011 238.563 76.1011 238.564C76.1011 238.564 76.1011 238.564 76.1011 238.564C76.1011 238.565 76.1011 238.565 76.1011 238.565C76.1011 238.565 76.1011 238.566 76.1011 238.566C76.1011 238.566 76.1011 238.566 76.1011 238.567C76.1011 238.567 76.1011 238.567 76.1011 238.567C76.1011 238.568 76.1011 238.568 76.1011 238.568C76.1011 238.568 76.1011 238.569 76.1011 238.569C76.1011 238.569 76.1011 238.569 76.1011 238.569C76.1011 238.57 76.1011 238.57 76.1011 238.57C76.1011 238.57 76.1011 238.57 76.1011 238.571C76.1011 238.571 76.1011 238.571 76.1011 238.571C76.1011 238.571 76.1011 238.572 76.1011 238.572C76.1011 238.572 76.1011 238.572 76.1011 238.572C76.1011 238.572 76.1011 238.573 76.1011 238.573C76.1011 238.573 76.1011 238.573 76.1011 238.573C76.1011 238.573 76.1011 238.574 76.1011 238.574C76.1011 238.574 76.1011 238.574 76.1011 238.574C76.1011 238.574 76.1011 238.575 76.1011 238.575C76.1011 238.575 76.1011 238.575 76.1011 238.575C76.1011 238.575 76.1011 238.575 76.1011 238.576C76.1011 238.576 76.1011 238.576 76.1011 238.576C76.1011 238.576 76.1011 238.576 76.1011 238.576C76.1011 238.577 76.1011 238.577 76.1011 238.577C76.1011 238.577 76.1011 238.577 76.1011 238.577C76.1011 238.577 76.1011 238.577 76.1011 238.577C76.1011 238.578 76.1011 238.578 76.1011 238.578C76.1011 238.578 76.1011 238.578 76.1011 238.578C76.1011 238.578 76.1011 238.578 76.1011 238.578C76.1011 238.578 76.1011 238.578 76.1011 238.579C76.1011 238.579 76.1011 238.579 76.1011 238.579C76.1011 238.579 76.1011 238.579 76.1011 238.579C76.1011 238.579 76.1011 238.579 76.1011 238.579C76.1011 238.579 76.1011 238.579 76.1011 238.579C76.1011 238.579 76.1011 238.579 76.1011 238.579C76.1011 238.58 76.1011 238.58 76.1011 238.58C76.1011 238.58 76.1011 238.58 76.1011 238.58C76.1011 238.58 76.1011 238.58 76.1011 238.58C76.1011 238.58 76.1011 238.58 76.1011 238.58C76.1011 238.58 76.1011 238.58 76.1011 238.58C76.1011 238.58 76.1011 238.58 76.1011 238.58C76.1011 238.58 76.1011 238.58 76.1011 238.58C76.1011 238.58 76.1011 238.58 78.1011 238.58ZM80.1011 236.147C80.1011 227.026 83.3556 219.518 89.8921 213.483L87.1786 210.544C79.8027 217.355 76.1011 225.936 76.1011 236.147H80.1011ZM89.8853 213.49C96.446 207.488 105.473 204.38 117.205 204.38V200.38C104.754 200.38 94.6672 203.694 87.1855 210.538L89.8853 213.49ZM117.205 204.38C130.471 204.38 140.165 207.312 146.621 212.851L149.225 209.815C141.768 203.417 130.984 200.38 117.205 200.38V204.38ZM146.629 212.858C152.977 218.245 156.357 226.949 156.357 239.456H160.357C160.357 226.273 156.781 216.228 149.217 209.808L146.629 212.858ZM156.357 239.456C156.357 241.679 156.172 243.869 155.801 246.026L159.743 246.704C160.153 244.32 160.357 241.903 160.357 239.456H156.357ZM155.803 246.017C155.42 248.18 155.01 250.066 154.574 251.683L158.436 252.725C158.91 250.968 159.344 248.962 159.742 246.713L155.803 246.017ZM154.574 251.683C154.171 253.176 153.462 254.875 152.411 256.787L155.917 258.714C157.076 256.604 157.928 254.605 158.436 252.725L154.574 251.683ZM152.388 256.832C151.354 258.831 150.528 260.35 149.906 261.406L153.352 263.437C154.029 262.287 154.894 260.693 155.941 258.669L152.388 256.832ZM149.886 261.439C149.394 262.314 148.417 263.66 146.871 265.524L149.95 268.077C151.525 266.179 152.694 264.605 153.371 263.404L149.886 261.439ZM146.867 265.53C145.367 267.351 144.384 268.521 143.894 269.071L146.881 271.731C147.431 271.114 148.464 269.883 149.955 268.072L146.867 265.53ZM143.894 269.071C143.406 269.619 142.298 270.789 140.536 272.612L143.413 275.391C145.162 273.581 146.329 272.351 146.881 271.731L143.894 269.071ZM140.536 272.612C138.772 274.438 137.782 275.457 137.539 275.7L140.364 278.531C140.641 278.255 141.666 277.199 143.413 275.391L140.536 272.612ZM137.539 275.7C136.856 276.382 134.646 278.46 130.862 281.976L133.584 284.906C137.341 281.416 139.617 279.277 140.364 278.531L137.539 275.7ZM130.863 281.975C127.147 285.422 123.786 288.613 120.782 291.546L123.576 294.409C126.552 291.503 129.888 288.336 133.583 284.907L130.863 281.975ZM120.798 291.531C117.754 294.436 114.875 297.507 112.162 300.742L115.227 303.313C117.845 300.19 120.623 297.227 123.56 294.424L120.798 291.531ZM112.175 300.727C110.81 302.322 109.735 303.734 108.991 304.947C108.298 306.078 107.697 307.338 107.697 308.547H111.697C111.697 308.579 111.693 308.471 111.809 308.175C111.919 307.893 112.107 307.517 112.401 307.039C112.99 306.079 113.914 304.847 115.214 303.328L112.175 300.727ZM109.697 310.547H160.015V306.547H109.697V310.547ZM158.015 308.547V329.47H162.015V308.547H158.015ZM160.015 327.47H76.1507V331.47H160.015V327.47ZM78.1507 329.47C78.1507 328.462 78.1173 326.944 78.0522 324.929L74.0543 325.058C74.1192 327.065 74.1507 328.53 74.1507 329.47H78.1507ZM78.0522 324.931C77.9874 322.861 77.9557 321.296 77.9557 320.225H73.9557C73.9557 321.359 73.989 322.974 74.0542 325.056L78.0522 324.931ZM77.9557 320.225C77.9557 317.254 78.1463 314.749 78.5102 312.691L74.5714 311.994C74.1552 314.348 73.9557 317.098 73.9557 320.225H77.9557ZM78.5069 312.709C79.9446 304.998 86.2327 295.671 97.9929 284.709L95.2656 281.783C83.3618 292.879 76.2576 302.95 74.5747 311.976L78.5069 312.709ZM97.9865 284.715C99.6925 283.139 102.447 280.804 106.276 277.695L103.755 274.59C99.9134 277.709 97.0766 280.11 95.272 281.777L97.9865 284.715ZM106.263 277.706C110.179 274.58 113.613 271.74 116.563 269.189L113.947 266.164C111.046 268.673 107.654 271.477 103.768 274.58L106.263 277.706ZM116.582 269.173C119.552 266.538 122.614 263.581 125.765 260.305L122.883 257.532C119.793 260.743 116.808 263.625 113.928 266.18L116.582 269.173ZM125.751 260.32C129.048 256.962 131.618 253.524 133.419 250L129.857 248.18C128.277 251.272 125.971 254.387 122.897 257.517L125.751 260.32ZM133.412 250.013C135.283 246.417 136.271 242.857 136.271 239.359H132.271C132.271 242.088 131.503 245.016 129.864 248.167L133.412 250.013ZM136.271 239.359C136.271 233.594 134.905 228.899 131.821 225.648C128.718 222.377 124.205 220.913 118.668 220.913V224.913C123.533 224.913 126.821 226.19 128.919 228.401C131.036 230.632 132.271 234.159 132.271 239.359H136.271ZM118.668 220.913C114.151 220.913 110.085 222.247 106.543 224.916L108.95 228.111C111.779 225.979 114.994 224.913 118.668 224.913V220.913ZM106.543 224.916C102.781 227.75 100.968 231.856 100.968 236.926H104.968C104.968 232.913 106.34 230.077 108.95 228.111L106.543 224.916ZM100.968 236.926C100.968 239.969 101.536 243.022 102.649 246.077L106.407 244.707C105.44 242.053 104.968 239.462 104.968 236.926H100.968ZM208.053 274.104L235.455 236.25L232.215 233.904L204.813 271.758L208.053 274.104ZM235.748 234.492C234.13 229.196 232.544 225.335 230.904 223.309L227.795 225.825C228.885 227.172 230.29 230.318 231.923 235.661L235.748 234.492ZM230.955 223.375C229.12 220.902 226.084 219.94 222.523 219.94V223.94C225.464 223.94 226.979 224.729 227.744 225.759L230.955 223.375ZM222.523 219.94C219.099 219.94 216.097 221.245 213.602 223.735L216.427 226.567C218.223 224.775 220.227 223.94 222.523 223.94V219.94ZM213.58 223.757C211.286 226.118 209.549 228.962 208.356 232.254L212.117 233.618C213.134 230.811 214.583 228.465 216.449 226.545L213.58 223.757ZM208.343 232.29C207.25 235.495 206.382 239.421 205.721 244.038L209.681 244.605C210.32 240.14 211.142 236.475 212.129 233.582L208.343 232.29ZM205.722 244.034C205.065 248.553 204.635 252.603 204.436 256.18L208.43 256.402C208.621 252.972 209.036 249.043 209.68 244.609L205.722 244.034ZM204.435 256.217C204.303 259.75 204.238 263.7 204.238 268.066H208.238C208.238 263.738 208.303 259.839 208.432 256.365L204.435 256.217ZM204.24 268.146L204.435 273.011L208.432 272.851L208.236 267.986L204.24 268.146ZM235.732 257.639L207.648 295.98L210.875 298.344L238.959 260.003L235.732 257.639ZM207.335 297.702C208.722 302.642 210.335 306.455 212.275 308.911L215.414 306.432C213.973 304.607 212.531 301.413 211.187 296.622L207.335 297.702ZM212.275 308.911C214.41 311.616 217.476 312.883 221.158 312.883V308.883C218.469 308.883 216.659 308.009 215.414 306.432L212.275 308.911ZM221.158 312.883C223.956 312.883 226.488 312.217 228.674 310.815L226.514 307.448C225.06 308.381 223.302 308.883 221.158 308.883V312.883ZM228.689 310.805C230.941 309.332 232.69 307.169 233.984 304.442L230.371 302.727C229.325 304.93 228.018 306.465 226.5 307.457L228.689 310.805ZM233.984 304.442C235.207 301.867 236.191 299.191 236.937 296.416L233.074 295.378C232.39 297.922 231.489 300.371 230.371 302.727L233.984 304.442ZM236.925 296.46C237.755 293.627 238.325 290.175 238.657 286.135L234.67 285.807C234.352 289.682 233.816 292.847 233.086 295.334L236.925 296.46ZM238.657 286.132C238.984 282.08 239.182 278.438 239.248 275.21L235.249 275.129C235.185 278.258 234.992 281.818 234.67 285.81L238.657 286.132ZM239.247 275.251C239.378 272.036 239.443 268.147 239.443 263.589H235.443C235.443 268.114 235.379 271.945 235.25 275.088L239.247 275.251ZM239.443 263.548L239.346 258.78L235.346 258.862L235.444 263.63L239.443 263.548ZM222.718 203.796C228.624 203.796 233.723 204.973 238.072 207.264L239.936 203.724C234.923 201.084 229.165 199.796 222.718 199.796V203.796ZM238.082 207.269C242.57 209.6 246.122 212.642 248.783 216.384L252.043 214.066C248.984 209.764 244.929 206.318 239.926 203.719L238.082 207.269ZM248.792 216.397C251.504 220.149 253.759 224.781 255.529 230.332L259.34 229.117C257.469 223.25 255.043 218.217 252.034 214.054L248.792 216.397ZM255.531 230.339C257.312 235.861 258.518 241.407 259.153 246.981L263.127 246.528C262.462 240.683 261.198 234.877 259.338 229.111L255.531 230.339ZM259.156 247.003C259.859 252.618 260.213 258.697 260.213 265.244H264.213C264.213 258.555 263.851 252.308 263.125 246.506L259.156 247.003ZM260.213 265.244C260.213 271.993 259.891 278.277 259.25 284.098L263.226 284.536C263.885 278.55 264.213 272.118 264.213 265.244H260.213ZM259.25 284.095C258.614 289.804 257.405 295.586 255.619 301.444L259.445 302.611C261.299 296.532 262.561 290.507 263.225 284.538L259.25 284.095ZM255.615 301.458C253.907 307.203 251.68 312.03 248.961 315.976L252.255 318.246C255.258 313.887 257.647 308.659 259.449 302.598L255.615 301.458ZM248.961 315.976C246.295 319.846 242.708 323.014 238.152 325.471L240.051 328.992C245.116 326.259 249.2 322.68 252.255 318.246L248.961 315.976ZM238.152 325.471C233.675 327.886 228.452 329.124 222.426 329.124V333.124C229.012 333.124 234.906 331.767 240.051 328.992L238.152 325.471ZM222.426 329.124C216.158 329.124 210.731 328.03 206.098 325.901L204.428 329.535C209.677 331.947 215.692 333.124 222.426 333.124V329.124ZM206.098 325.901C201.397 323.74 197.692 320.934 194.921 317.508L191.811 320.023C195.021 323.992 199.247 327.154 204.428 329.535L206.098 325.901ZM194.934 317.524C192.175 314.037 189.867 309.673 188.04 304.39L184.26 305.698C186.203 311.314 188.705 316.098 191.797 320.006L194.934 317.524ZM188.049 304.417C186.268 299.023 185.029 293.569 184.331 288.055L180.362 288.558C181.094 294.332 182.391 300.037 184.25 305.671L188.049 304.417ZM184.333 288.078C183.694 282.523 183.371 276.341 183.371 269.525H179.371C179.371 276.463 179.699 282.802 180.36 288.535L184.333 288.078ZM183.371 269.525C183.371 264.564 183.5 259.933 183.758 255.632L179.765 255.393C179.502 259.785 179.371 264.496 179.371 269.525H183.371ZM183.756 255.659C184.076 251.313 184.621 246.833 185.392 242.218L181.447 241.559C180.657 246.286 180.097 250.889 179.767 255.365L183.756 255.659ZM185.387 242.245C186.218 237.655 187.267 233.503 188.531 229.784L184.744 228.498C183.407 232.433 182.311 236.781 181.451 241.533L185.387 242.245ZM188.531 229.784C189.782 226.102 191.438 222.609 193.502 219.301L190.109 217.183C187.882 220.752 186.093 224.524 184.744 228.498L188.531 229.784ZM193.511 219.286C195.557 215.945 197.89 213.198 200.499 211.019L197.935 207.949C194.953 210.44 192.345 213.532 190.1 217.197L193.511 219.286ZM200.482 211.033C203.136 208.866 206.334 207.124 210.106 205.829L208.806 202.046C204.647 203.474 201.019 205.431 197.952 207.935L200.482 211.033ZM210.133 205.819C213.851 204.481 218.038 203.796 222.718 203.796V199.796C217.647 199.796 212.993 200.539 208.779 202.055L210.133 205.819ZM119.961 353.837L143.56 358.217L144.29 354.284L120.691 349.905L119.961 353.837ZM141.925 356.25V481.393H145.925V356.25H141.925ZM143.925 479.393H118.766V483.393H143.925V479.393ZM120.766 481.389L120.571 387.775L116.571 387.783L116.766 481.397L120.766 481.389ZM117.011 386.527C108.237 397.456 98.7071 405.772 88.4351 411.53L90.391 415.02C101.183 408.97 111.091 400.29 120.13 389.031L117.011 386.527ZM91.0712 412.157L77.0288 391.332L73.7124 393.568L87.7548 414.393L91.0712 412.157ZM76.2635 394.24C81.9604 391.397 87.3912 388.06 92.5551 384.228L90.1716 381.015C85.1937 384.709 79.9627 387.924 74.4777 390.661L76.2635 394.24ZM92.5585 384.225C97.742 380.362 101.983 376.796 105.258 373.528L102.433 370.696C99.3369 373.786 95.2565 377.226 90.1682 381.018L92.5585 384.225ZM105.244 373.542C108.542 370.316 111.55 367.052 114.265 363.748L111.174 361.208C108.558 364.392 105.65 367.55 102.447 370.682L105.244 373.542ZM114.262 363.751C116.993 360.442 118.91 357.966 119.952 356.371L116.604 354.183C115.696 355.572 113.907 357.897 111.177 361.205L114.262 363.751ZM119.973 356.339C120.95 354.779 121.66 353.6 122.081 352.83L118.571 350.912C118.212 351.569 117.557 352.661 116.583 354.215L119.973 356.339ZM230.374 421.838V390.212H226.374V421.838H230.374ZM226.631 389.232C221.675 398.045 213.479 408.515 201.959 420.656L204.861 423.41C216.485 411.158 224.932 400.414 230.118 391.192L226.631 389.232ZM203.426 424.033L228.39 423.838L228.359 419.838L203.395 420.033L203.426 424.033ZM177.183 427.328C177.157 427.367 177.273 427.217 177.708 426.719C178.089 426.284 178.634 425.671 179.347 424.879C180.772 423.296 182.848 421.014 185.577 418.031L182.626 415.331C179.895 418.316 177.81 420.608 176.374 422.204C175.657 423.001 175.097 423.629 174.697 424.086C174.353 424.48 174.013 424.873 173.857 425.106L177.183 427.328ZM185.585 418.023C191.057 411.977 196.626 405.673 202.291 399.109L199.263 396.495C193.617 403.037 188.069 409.318 182.619 415.339L185.585 418.023ZM202.291 399.109C208.008 392.487 213.744 384.896 219.502 376.343L216.183 374.109C210.499 382.553 204.859 390.013 199.263 396.495L202.291 399.109ZM219.5 376.346C225.336 367.709 229.234 360.246 231.073 353.992L227.236 352.864C225.564 358.547 221.922 365.616 216.185 374.106L219.5 376.346ZM229.171 355.428L253.452 355.233L253.42 351.233L229.139 351.428L229.171 355.428ZM251.436 353.233V421.838H255.436V353.233H251.436ZM253.436 423.838H265.821V419.838H253.436V423.838ZM263.821 421.838V442.274H267.821V421.838H263.821ZM265.821 440.274H253.436V444.274H265.821V440.274ZM251.436 442.274V480.518H255.436V442.274H251.436ZM253.436 478.518H228.374V482.518H253.436V478.518ZM230.374 480.518V442.566H226.374V480.518H230.374ZM228.366 440.566L184.288 440.76L184.306 444.76L228.383 444.566L228.366 440.566ZM186.064 441.823L177.287 425.28L173.754 427.155L182.53 443.698L186.064 441.823Z" fill="black" mask="url(#path-11-outside-1_6_143)"/>
</svg>
