<svg width="265" height="334" viewBox="0 0 265 334" fill="none" xmlns="http://www.w3.org/2000/svg">
<path d="M92.5062 286.432L92.2946 286.001L91.8149 286.023C73.2343 286.846 56.1768 282.766 40.6238 273.787C24.1054 264.25 12.8372 250.218 6.80385 231.656C0.755 213.047 -0.720206 192.626 3.38308 170.961C7.49401 149.256 15.2294 127.413 27.3941 106.344C51.8808 63.9315 76.7366 34.3526 101.98 17.5455C126.99 0.894559 152.379 -3.2252 178.251 5.13569L170.868 38.5757C163.464 35.736 156.246 34.6979 148.924 35.2963C141.363 35.9141 134.412 37.7987 127.359 41.4321C120.33 45.053 114.127 49.5899 108.087 54.6377C102.017 59.7112 95.8577 66.5099 89.6678 74.144C83.4661 81.7926 77.9381 89.8226 73.138 97.3646C68.3465 104.893 62.9679 113.438 57.534 122.85C48.7805 138.011 42.617 153.328 38.6583 169.469C34.6923 185.64 34.4384 200.815 37.0379 214.939C39.6527 229.145 46.5877 239.098 57.1357 245.187C64.5757 249.483 72.6494 251.875 81.4797 252.908L82.406 253.017L82.2936 252.091C79.9087 232.455 81.196 211.813 86.6892 190.019C92.1889 168.198 100.208 147.399 111.215 128.335C133.472 89.7839 156.182 62.7668 179.32 47.2027C202.458 31.6393 222.357 29.1174 239.705 39.1334C244.957 42.1659 249.309 45.9984 253.095 50.8304C256.851 55.6249 259.69 62.1004 261.914 70.5006C264.12 78.8363 264.393 88.2926 263.362 99.2852C262.336 110.227 258.776 123.301 252.595 139.388C246.42 155.464 238.083 172.981 227.055 192.083C214.692 213.496 199.782 231.641 182.327 246.526C164.862 261.419 146.633 272.278 127.307 278.927L126.388 279.243L126.944 280.041C130.643 285.354 135.282 289.858 140.726 293.001C144.76 295.33 148.347 296.951 151.481 297.842C154.456 298.689 158.065 299.088 162.464 298.77L162.046 331.969C149.578 333.29 137.863 330.375 126.829 324.005C111.624 315.226 100.421 302.554 92.5062 286.432ZM115.563 246.783L115.642 247.742L116.546 247.413C131.857 241.835 147.221 232.256 161.392 219.316C175.558 206.381 187.963 191.082 197.69 174.234C206.42 159.114 213.521 145.272 218.846 132.185C224.159 119.126 227.611 108.506 228.831 100.162C230.044 91.8628 230.15 84.6801 229.264 79.1579C228.374 73.6156 226.267 69.9548 222.999 68.0683C220.123 66.408 216.736 66.1484 212.895 67.1169C209.067 68.082 204.748 70.2746 199.928 73.5776C190.282 80.1889 180.114 90.0664 169.421 103.182C158.725 116.301 149.37 130.188 140.44 145.655C131.876 160.489 125.275 177.339 120.49 195.67C115.7 214.022 114.278 231.189 115.563 246.783Z" fill="#FFF956" stroke="black" stroke-width="1.46796"/>
</svg>
